<?xml version="1.0" encoding="UTF-8"?>
<svg xmlns="http://www.w3.org/2000/svg" xmlns:xlink="http://www.w3.org/1999/xlink" width="600" height="450" viewBox="0 0 600 450">
<defs>
<clipPath id="clip-0-2e961308">
<path clip-rule="nonzero" d="M 198 17 L 392 17 L 392 216 L 198 216 Z M 198 17 "/>
</clipPath>
<clipPath id="clip-1-2e961308">
<path clip-rule="nonzero" d="M 196 16 L 404 16 L 404 216 L 196 216 Z M 196 16 "/>
</clipPath>
<clipPath id="clip-2-2e961308">
<path clip-rule="nonzero" d="M 193 16 L 391 16 L 391 216 L 193 216 Z M 193 16 "/>
</clipPath>
<clipPath id="clip-3-2e961308">
<path clip-rule="nonzero" d="M 223 37 L 390 37 L 390 216 L 223 216 Z M 223 37 "/>
</clipPath>
<clipPath id="clip-4-2e961308">
<path clip-rule="nonzero" d="M 198 37 L 396 37 L 396 216 L 198 216 Z M 198 37 "/>
</clipPath>
<clipPath id="clip-5-2e961308">
<path clip-rule="nonzero" d="M 199 35 L 393 35 L 393 216 L 199 216 Z M 199 35 "/>
</clipPath>
<clipPath id="clip-6-2e961308">
<path clip-rule="nonzero" d="M 202 20 L 382 20 L 382 216 L 202 216 Z M 202 20 "/>
</clipPath>
<clipPath id="clip-7-2e961308">
<path clip-rule="nonzero" d="M 221 16 L 391 16 L 391 216 L 221 216 Z M 221 16 "/>
</clipPath>
<clipPath id="clip-8-2e961308">
<path clip-rule="nonzero" d="M 206 16 L 396 16 L 396 190 L 206 190 Z M 206 16 "/>
</clipPath>
<clipPath id="clip-9-2e961308">
<path clip-rule="nonzero" d="M 199 16 L 404 16 L 404 216 L 199 216 Z M 199 16 "/>
</clipPath>
<clipPath id="clip-10-2e961308">
<path clip-rule="nonzero" d="M 184 16 L 400 16 L 400 216 L 184 216 Z M 184 16 "/>
</clipPath>
<clipPath id="clip-11-2e961308">
<path clip-rule="nonzero" d="M 52 235 L 246 235 L 246 434 L 52 434 Z M 52 235 "/>
</clipPath>
<clipPath id="clip-12-2e961308">
<path clip-rule="nonzero" d="M 50 234 L 258 234 L 258 434 L 50 434 Z M 50 234 "/>
</clipPath>
<clipPath id="clip-13-2e961308">
<path clip-rule="nonzero" d="M 47 234 L 245 234 L 245 434 L 47 434 Z M 47 234 "/>
</clipPath>
<clipPath id="clip-14-2e961308">
<path clip-rule="nonzero" d="M 77 255 L 244 255 L 244 434 L 77 434 Z M 77 255 "/>
</clipPath>
<clipPath id="clip-15-2e961308">
<path clip-rule="nonzero" d="M 52 255 L 250 255 L 250 434 L 52 434 Z M 52 255 "/>
</clipPath>
<clipPath id="clip-16-2e961308">
<path clip-rule="nonzero" d="M 53 253 L 247 253 L 247 434 L 53 434 Z M 53 253 "/>
</clipPath>
<clipPath id="clip-17-2e961308">
<path clip-rule="nonzero" d="M 56 238 L 236 238 L 236 434 L 56 434 Z M 56 238 "/>
</clipPath>
<clipPath id="clip-18-2e961308">
<path clip-rule="nonzero" d="M 75 234 L 245 234 L 245 434 L 75 434 Z M 75 234 "/>
</clipPath>
<clipPath id="clip-19-2e961308">
<path clip-rule="nonzero" d="M 60 234 L 250 234 L 250 408 L 60 408 Z M 60 234 "/>
</clipPath>
<clipPath id="clip-20-2e961308">
<path clip-rule="nonzero" d="M 53 234 L 258 234 L 258 434 L 53 434 Z M 53 234 "/>
</clipPath>
<clipPath id="clip-21-2e961308">
<path clip-rule="nonzero" d="M 38 234 L 254 234 L 254 434 L 38 434 Z M 38 234 "/>
</clipPath>
<clipPath id="clip-22-2e961308">
<path clip-rule="nonzero" d="M 345 235 L 539 235 L 539 434 L 345 434 Z M 345 235 "/>
</clipPath>
<clipPath id="clip-23-2e961308">
<path clip-rule="nonzero" d="M 343 234 L 551 234 L 551 434 L 343 434 Z M 343 234 "/>
</clipPath>
<clipPath id="clip-24-2e961308">
<path clip-rule="nonzero" d="M 340 234 L 538 234 L 538 434 L 340 434 Z M 340 234 "/>
</clipPath>
<clipPath id="clip-25-2e961308">
<path clip-rule="nonzero" d="M 370 255 L 537 255 L 537 434 L 370 434 Z M 370 255 "/>
</clipPath>
<clipPath id="clip-26-2e961308">
<path clip-rule="nonzero" d="M 345 255 L 543 255 L 543 434 L 345 434 Z M 345 255 "/>
</clipPath>
<clipPath id="clip-27-2e961308">
<path clip-rule="nonzero" d="M 346 253 L 540 253 L 540 434 L 346 434 Z M 346 253 "/>
</clipPath>
<clipPath id="clip-28-2e961308">
<path clip-rule="nonzero" d="M 349 238 L 529 238 L 529 434 L 349 434 Z M 349 238 "/>
</clipPath>
<clipPath id="clip-29-2e961308">
<path clip-rule="nonzero" d="M 368 234 L 538 234 L 538 434 L 368 434 Z M 368 234 "/>
</clipPath>
<clipPath id="clip-30-2e961308">
<path clip-rule="nonzero" d="M 353 234 L 543 234 L 543 408 L 353 408 Z M 353 234 "/>
</clipPath>
<clipPath id="clip-31-2e961308">
<path clip-rule="nonzero" d="M 346 234 L 551 234 L 551 434 L 346 434 Z M 346 234 "/>
</clipPath>
<clipPath id="clip-32-2e961308">
<path clip-rule="nonzero" d="M 331 234 L 547 234 L 547 434 L 331 434 Z M 331 234 "/>
</clipPath>
<clipPath id="clip-33-2e961308">
<path clip-rule="nonzero" d="M 162 16 L 437 16 L 437 216 L 162 216 Z M 162 16 "/>
</clipPath>
<clipPath id="clip-34-2e961308">
<path clip-rule="nonzero" d="M 16 234 L 291 234 L 291 434 L 16 434 Z M 16 234 "/>
</clipPath>
<clipPath id="clip-35-2e961308">
<path clip-rule="nonzero" d="M 309 234 L 584 234 L 584 434 L 309 434 Z M 309 234 "/>
</clipPath>
</defs>
<g clip-path="url(#clip-0-2e961308)">
<path fill="none" stroke-width="0.75" stroke-linecap="butt" stroke-linejoin="miter" stroke="rgb(79.215688%, 23.529412%, 20%)" stroke-opacity="0.8" stroke-miterlimit="2" d="M 342.347656 49.269531 L 268.847656 49.027344 L 200.308594 101.859375 L 239.875 185.035156 L 324.535156 200.636719 L 354.488281 132.003906 L 349.4375 72.480469 L 288.238281 39.425781 L 234.964844 86.808594 L 223.640625 165.183594 L 299.847656 194.71875 L 342.800781 143.535156 L 375.765625 80.6875 L 312.859375 19.203125 L 232.671875 58.796875 L 202.707031 145.097656 L 284.445312 168.597656 L 342.304688 164.683594 L 339.023438 110.007812 L 313.605469 84.441406 L 252.496094 44.203125 L 218.964844 116.710938 L 262.023438 175.519531 L 326.417969 173.46875 L 384.726562 127.378906 L 339.914062 68.363281 L 275.800781 38.410156 L 249.0625 101.804688 L 258.25 152.59375 L 311.519531 193 L 354.699219 140.382812 L 367.691406 70.925781 L 299.035156 80.925781 L 234.570312 75.515625 L 259.941406 134.742188 L 292.027344 173.917969 L 361.042969 167.742188 L 368.140625 94.699219 L 314.390625 62.171875 L 253.4375 64.535156 L 226.589844 127.714844 L 260.351562 205.707031 L 345.542969 184.992188 L 348.519531 115.132812 L 338.558594 52.734375 L 256.03125 25.296875 L 220.441406 106.15625 L 231.929688 197.09375 L 323.996094 193.726562 L 382.160156 138.476562 L 369.898438 52.425781 L 287.953125 46.105469 L 240.742188 90.667969 L 214.875 173.019531 L 301.355469 199.886719 L 370.589844 159.453125 L 360.898438 86.238281 L 307.226562 51.632812 L 245.933594 71.765625 L 235.722656 136.410156 L 284.167969 173.394531 L 347.066406 168.207031 L 374.351562 103.292969 L 320.726562 66.164062 L 263.242188 62.703125 L 209.207031 118.398438 L 265.054688 172.914062 L 337.882812 194.300781 L 364.175781 123.472656 L 353.609375 49.878906 L 272.132812 31.777344 L 261.28125 105.972656 L 265.386719 147.359375 L 309.523438 173.515625 L 389.066406 153.679688 L 354.40625 78.292969 L 297.710938 58.273438 L 220.425781 68.621094 L 234.644531 148.148438 L 291.304688 189.789062 L 374.15625 176.546875 L 371.144531 92.371094 L 321.324219 31.3125 L 245.683594 57.972656 L 230.742188 128.296875 L 258.5 214.671875 L 338.46875 172.207031 L 364.132812 113.710938 L 345.957031 37.679688 L 266.738281 50.636719 L 210.933594 106.558594 L 238.253906 192.207031 L 326.800781 197.5625 L 356.617188 130.449219 L 360.5625 58.859375 L 287.417969 50.128906 L 229.421875 87.246094 L 241.65625 156.480469 L 303.019531 204.28125 L 347.675781 144.289062 "/>
</g>
<g clip-path="url(#clip-1-2e961308)">
<path fill="none" stroke-width="0.75" stroke-linecap="butt" stroke-linejoin="miter" stroke="rgb(58.823532%, 34.509805%, 69.803923%)" stroke-opacity="0.8" stroke-miterlimit="2" d="M 317.363281 88.179688 L 277.199219 67.273438 L 198.28125 101.570312 L 245.125 178.957031 L 326.1875 206.214844 L 368.03125 135.941406 L 384.183594 42.203125 L 292.203125 66.394531 L 206.40625 73.890625 L 217.71875 169.023438 L 299.71875 165.492188 L 353.535156 150.359375 L 330.851562 101.484375 L 309.351562 44.625 L 228.714844 55.410156 L 211.382812 142.492188 L 274.417969 203.640625 L 337.410156 159.113281 L 397.566406 101.132812 L 333.675781 39.546875 L 247.8125 37.050781 L 204.917969 116.835938 L 260.035156 178.675781 L 344.992188 213.121094 L 389.648438 128.039062 L 334.640625 74.578125 L 281.882812 58.320312 L 206.628906 89.863281 L 227.945312 179.476562 L 312.8125 201.269531 L 384.6875 153.625 L 346.546875 84.902344 L 299 78.347656 L 239.230469 78.421875 L 221.628906 152.898438 L 290.347656 186.949219 L 365.867188 171.800781 L 346.246094 101.496094 L 318.488281 47.371094 L 255.53125 66.878906 L 233.28125 126.636719 L 270.40625 182.664062 L 351.875 194.476562 L 401.382812 114.195312 L 328.359375 69.253906 L 257.335938 28.019531 L 206.261719 104.390625 L 250.105469 175.28125 L 322.046875 187.539062 L 363.914062 133.515625 L 328.757812 89.578125 L 287.300781 42.164062 L 251.941406 95.492188 L 212.234375 174.800781 L 301.058594 186.507812 L 366.082031 156.699219 L 359.273438 87.027344 L 307.054688 53.058594 L 234.148438 62.035156 L 229.894531 138.277344 L 281.589844 183.042969 L 344.730469 165.640625 L 378.679688 102.558594 L 327.625 49.96875 L 262.542969 61.671875 L 217.660156 118.171875 L 244.132812 207.484375 L 323.117188 164.183594 L 390.683594 126.535156 L 341.816406 64.289062 L 276.347656 44.75 L 229.9375 97.746094 L 239.527344 171.132812 L 313.828125 198.203125 L 385.335938 152.109375 L 370.898438 66.96875 L 299.339844 16 "/>
</g>
<g clip-path="url(#clip-2-2e961308)">
<path fill="none" stroke-width="0.75" stroke-linecap="butt" stroke-linejoin="miter" stroke="rgb(58.823532%, 34.509805%, 69.803923%)" stroke-opacity="0.8" stroke-miterlimit="2" d="M 295.144531 16 L 254.5 89.035156 L 266.300781 132.457031 L 291.929688 184.164062 L 369.039062 172.398438 L 365.328125 94.289062 L 318.628906 41.761719 L 245.964844 58.28125 L 236.527344 127.265625 L 263.355469 202.992188 L 340.53125 175.1875 L 388.828125 112.835938 L 343.230469 42.277344 L 259.222656 35.636719 L 196.078125 104.976562 L 245.492188 183.199219 L 319.964844 216 "/>
</g>
<g clip-path="url(#clip-3-2e961308)">
<path fill="none" stroke-width="0.75" stroke-linecap="butt" stroke-linejoin="miter" stroke="rgb(58.823532%, 34.509805%, 69.803923%)" stroke-opacity="0.8" stroke-miterlimit="2" d="M 338.828125 216 L 381.355469 136.707031 L 364.964844 54.742188 L 285.554688 39.976562 L 225.597656 85.675781 L 239.964844 157.664062 L 302.433594 189.582031 L 387.40625 167.617188 "/>
</g>
<g clip-path="url(#clip-4-2e961308)">
<path fill="none" stroke-width="0.75" stroke-linecap="butt" stroke-linejoin="miter" stroke="rgb(21.960784%, 59.607846%, 14.901961%)" stroke-opacity="0.8" stroke-miterlimit="2" d="M 347.367188 41.453125 L 265.066406 40.757812 L 200.3125 101.863281 L 249.996094 173.320312 L 323.261719 196.332031 L 392.964844 143.199219 L 350.296875 71.730469 L 288.261719 39.574219 L 235.242188 86.9375 L 226.054688 163.617188 L 285.761719 216 "/>
</g>
<g clip-path="url(#clip-5-2e961308)">
<path fill="none" stroke-width="0.75" stroke-linecap="butt" stroke-linejoin="miter" stroke="rgb(21.960784%, 59.607846%, 14.901961%)" stroke-opacity="0.8" stroke-miterlimit="2" d="M 313.136719 216 L 370.710938 161.28125 L 374.980469 81.050781 L 309.40625 44.230469 L 248.683594 72.5 L 201.75 145.386719 L 282.074219 176.886719 L 343.480469 166.019531 L 390.398438 102.21875 L 334.53125 37.625 L 249.9375 40.289062 L 241.546875 116.511719 L 260.996094 177.148438 L 333 187.519531 L 381.765625 126.984375 L 361.9375 42.402344 L 282.222656 59.4375 L 251.691406 102.546875 L 230.167969 177.507812 L 314.871094 216 "/>
</g>
<g clip-path="url(#clip-6-2e961308)">
<path fill="none" stroke-width="0.75" stroke-linecap="butt" stroke-linejoin="miter" stroke="rgb(21.960784%, 59.607846%, 14.901961%)" stroke-opacity="0.8" stroke-miterlimit="2" d="M 315.21875 216 L 366.792969 145.722656 L 366.277344 71.859375 L 298.253906 22.277344 L 232.75 74.382812 L 219.332031 153.984375 L 287.542969 208.667969 L 350.257812 158.675781 L 373.933594 92.902344 L 321.65625 35.917969 L 242.585938 52.414062 L 207.117188 130.84375 L 269.640625 184.414062 L 334.453125 168.375 L 379.542969 114.582031 L 341.847656 47.40625 L 265.601562 45.265625 L 205.011719 104.234375 L 252.570312 172.320312 L 327.300781 204.207031 L 353.046875 130.558594 L 363.90625 57.835938 L 286.234375 35.699219 L 221.1875 82.234375 L 237.410156 157.835938 L 290.871094 216 "/>
</g>
<g clip-path="url(#clip-7-2e961308)">
<path fill="none" stroke-width="0.75" stroke-linecap="butt" stroke-linejoin="miter" stroke="rgb(21.960784%, 59.607846%, 14.901961%)" stroke-opacity="0.8" stroke-miterlimit="2" d="M 307.324219 216 L 340.457031 141.035156 L 388.375 72.921875 L 310.71875 22.550781 L 233.835938 61.773438 L 223.824219 140.21875 L 276.6875 201.398438 L 352.578125 174.253906 L 358.214844 106.03125 L 316.640625 75.753906 L 265.296875 65.722656 L 243.964844 117.476562 L 258.347656 183.996094 L 328.90625 175.992188 L 373.523438 124.554688 L 375.285156 23.394531 L 272.964844 34.328125 L 226.996094 96.972656 L 238.558594 172.023438 L 313.394531 195.710938 L 356.261719 139.878906 L 347.023438 83.363281 L 296.734375 26.75 L 227.488281 72.851562 L 232.480469 149.21875 L 292.644531 177.714844 L 374.148438 176.539062 L 351.535156 98.839844 L 327.113281 16 "/>
</g>
<g clip-path="url(#clip-8-2e961308)">
<path fill="none" stroke-width="0.75" stroke-linecap="butt" stroke-linejoin="miter" stroke="rgb(21.960784%, 59.607846%, 14.901961%)" stroke-opacity="0.8" stroke-miterlimit="2" d="M 320.726562 16 L 248.253906 60.746094 L 214.121094 131.273438 L 272.367188 181.300781 L 343.707031 179.765625 L 370.9375 113.46875 L 340.714844 46.523438 L 260.101562 37.394531 L 208.140625 106.261719 L 264.875 159.082031 L 322.625 185.085938 L 393.496094 139.777344 L 351.34375 67.484375 L 289.433594 61.128906 L 230.527344 87.699219 L 255.078125 147.089844 L 302.351562 187.527344 L 343.441406 141.804688 "/>
</g>
<g clip-path="url(#clip-9-2e961308)">
<path fill="none" stroke-width="0.75" stroke-linecap="butt" stroke-linejoin="miter" stroke="rgb(21.960784%, 59.607846%, 14.901961%)" stroke-opacity="0.8" stroke-miterlimit="2" d="M 337.285156 57.152344 L 267.683594 46.480469 L 201.800781 102.074219 L 233.886719 191.96875 L 320.816406 188.054688 L 386.675781 141.367188 L 370.035156 54.53125 L 290.476562 54.636719 L 223.199219 81.488281 L 235.78125 157.3125 L 299.894531 205.21875 L 369.101562 160.253906 L 383.574219 77.070312 L 309.042969 46.859375 L 220.355469 48.253906 L 232.386719 136.175781 L 287.800781 156.882812 L 347.746094 170.871094 L 401.578125 100.527344 L 341.792969 21.386719 L 247.859375 37.117188 L 220.449219 116.699219 L 251.699219 191.914062 L 337.082031 196.230469 L 372.472656 125.742188 L 361.621094 42.773438 L 272.828125 28.6875 L 217.207031 92.839844 L 224.488281 182.546875 L 311.042969 189.945312 L 364.832031 144.855469 L 356.097656 78.589844 L 298.660156 52.707031 L 251.613281 86.140625 L 232.695312 147.652344 L 289.648438 192.363281 L 365 171.070312 L 362.503906 96.449219 L 322.269531 33.695312 L 245.921875 56.144531 L 231.824219 126.871094 L 267.039062 190.378906 L 330.246094 162.070312 L 385.128906 114.484375 L 339.953125 50.476562 L 266.183594 46.480469 L 219.40625 106.027344 L 241.957031 185.058594 L 325.761719 199.328125 L 368.371094 134.726562 L 329.34375 89.046875 L 285.53125 31.445312 L 238.226562 89.582031 L 235.566406 159.078125 L 300.660156 168.429688 L 357.847656 151.664062 L 353.878906 89.640625 L 311.019531 20.039062 L 233.910156 61.839844 L 227.140625 139.15625 L 273.257812 214.222656 L 356.871094 178.964844 L 397.074219 99.4375 L 327.035156 51.355469 L 246.609375 38.25 L 232.210938 117.789062 L 281.085938 146.421875 L 327.488281 173.097656 L 355.636719 122.484375 L 358.175781 44.300781 L 289.28125 16 "/>
</g>
<g clip-path="url(#clip-10-2e961308)">
<path fill="none" stroke-width="0.75" stroke-linecap="butt" stroke-linejoin="miter" stroke="rgb(21.960784%, 59.607846%, 14.901961%)" stroke-opacity="0.8" stroke-miterlimit="2" d="M 253.539062 16 L 186.636719 86.382812 L 237.621094 172.882812 L 315.609375 208.410156 L 391.796875 154.828125 L 351.277344 80.441406 L 296.878906 31.414062 L 234.328125 76.949219 L 227.121094 151.878906 L 291.355469 189.320312 L 381.566406 182.554688 L 396.957031 83.855469 L 315.375 54.390625 L 249.074219 61.632812 L 254.5 124.050781 L 276.136719 172.230469 L 358.21875 200.695312 L 352.183594 114.132812 L 351.101562 29.011719 L 268.582031 54.3125 L 223.84375 107.9375 L 248.828125 179.050781 L 315.839844 164.816406 L 369.503906 133.710938 L 342.902344 75.386719 L 288.199219 54.386719 L 204.300781 76.9375 L 247.421875 152.449219 L 303.398438 213.820312 L 358.492188 150.640625 "/>
</g>
<g clip-path="url(#clip-11-2e961308)">
<path fill="none" stroke-width="0.75" stroke-linecap="butt" stroke-linejoin="miter" stroke="rgb(21.960784%, 59.607846%, 14.901961%)" stroke-opacity="0.8" stroke-miterlimit="2" d="M 196.347656 267.269531 L 122.847656 267.027344 L 54.308594 319.859375 L 93.875 403.035156 L 178.535156 418.636719 L 208.488281 350.003906 L 203.4375 290.480469 L 142.238281 257.425781 L 88.964844 304.808594 L 77.640625 383.183594 L 153.847656 412.71875 L 196.800781 361.535156 L 229.765625 298.6875 L 166.859375 237.203125 L 86.671875 276.796875 L 56.707031 363.097656 L 138.445312 386.597656 L 196.304688 382.683594 L 193.023438 328.007812 L 167.605469 302.441406 L 106.496094 262.203125 L 72.964844 334.710938 L 116.023438 393.519531 L 180.417969 391.46875 L 238.726562 345.378906 L 193.914062 286.363281 L 129.800781 256.410156 L 103.0625 319.804688 L 112.25 370.59375 L 165.519531 411 L 208.699219 358.382812 L 221.691406 288.925781 L 153.035156 298.925781 L 88.570312 293.515625 L 113.941406 352.742188 L 146.027344 391.917969 L 215.042969 385.742188 L 222.140625 312.699219 L 168.390625 280.171875 L 107.4375 282.535156 L 80.589844 345.714844 L 114.351562 423.707031 L 199.542969 402.992188 L 202.519531 333.132812 L 192.558594 270.734375 L 110.03125 243.296875 L 74.441406 324.15625 L 85.929688 415.09375 L 177.996094 411.726562 L 236.160156 356.476562 L 223.898438 270.425781 L 141.953125 264.105469 L 94.742188 308.667969 L 68.875 391.019531 L 155.355469 417.886719 L 224.589844 377.453125 L 214.898438 304.238281 L 161.226562 269.632812 L 99.933594 289.765625 L 89.722656 354.410156 L 138.167969 391.394531 L 201.066406 386.207031 L 228.351562 321.292969 L 174.726562 284.164062 L 117.242188 280.703125 L 63.207031 336.398438 L 119.054688 390.914062 L 191.882812 412.300781 L 218.175781 341.472656 L 207.609375 267.878906 L 126.132812 249.777344 L 115.28125 323.972656 L 119.386719 365.359375 L 163.523438 391.515625 L 243.066406 371.679688 L 208.40625 296.292969 L 151.710938 276.273438 L 74.425781 286.621094 L 88.644531 366.148438 L 145.304688 407.789062 L 228.15625 394.546875 L 225.144531 310.371094 L 175.324219 249.3125 L 99.683594 275.972656 L 84.742188 346.296875 L 112.5 432.671875 L 192.46875 390.207031 L 218.132812 331.710938 L 199.957031 255.679688 L 120.738281 268.636719 L 64.933594 324.558594 L 92.253906 410.207031 L 180.800781 415.5625 L 210.617188 348.449219 L 214.5625 276.859375 L 141.417969 268.128906 L 83.421875 305.246094 L 95.65625 374.480469 L 157.019531 422.28125 L 201.675781 362.289062 "/>
</g>
<g clip-path="url(#clip-12-2e961308)">
<path fill="none" stroke-width="0.75" stroke-linecap="butt" stroke-linejoin="miter" stroke="rgb(58.823532%, 34.509805%, 69.803923%)" stroke-opacity="0.8" stroke-miterlimit="2" d="M 171.363281 306.179688 L 131.199219 285.273438 L 52.28125 319.570312 L 99.125 396.957031 L 180.1875 424.214844 L 222.03125 353.941406 L 238.183594 260.203125 L 146.203125 284.394531 L 60.40625 291.890625 L 71.71875 387.023438 L 153.71875 383.492188 L 207.535156 368.359375 L 184.851562 319.484375 L 163.351562 262.625 L 82.714844 273.410156 L 65.382812 360.492188 L 128.417969 421.640625 L 191.410156 377.113281 L 251.566406 319.132812 L 187.675781 257.546875 L 101.8125 255.050781 L 58.917969 334.835938 L 114.035156 396.675781 L 198.992188 431.121094 L 243.648438 346.039062 L 188.640625 292.578125 L 135.882812 276.320312 L 60.628906 307.863281 L 81.945312 397.476562 L 166.8125 419.269531 L 238.6875 371.625 L 200.546875 302.902344 L 153 296.347656 L 93.230469 296.421875 L 75.628906 370.898438 L 144.347656 404.949219 L 219.867188 389.800781 L 200.246094 319.496094 L 172.488281 265.371094 L 109.53125 284.878906 L 87.28125 344.636719 L 124.40625 400.664062 L 205.875 412.476562 L 255.382812 332.195312 L 182.359375 287.253906 L 111.335938 246.019531 L 60.261719 322.390625 L 104.105469 393.28125 L 176.046875 405.539062 L 217.914062 351.515625 L 182.757812 307.578125 L 141.300781 260.164062 L 105.941406 313.492188 L 66.234375 392.800781 L 155.058594 404.507812 L 220.082031 374.699219 L 213.273438 305.027344 L 161.054688 271.058594 L 88.148438 280.035156 L 83.894531 356.277344 L 135.589844 401.042969 L 198.730469 383.640625 L 232.679688 320.558594 L 181.625 267.96875 L 116.542969 279.671875 L 71.660156 336.171875 L 98.132812 425.484375 L 177.117188 382.183594 L 244.683594 344.535156 L 195.816406 282.289062 L 130.347656 262.75 L 83.9375 315.746094 L 93.527344 389.132812 L 167.828125 416.203125 L 239.335938 370.109375 L 224.898438 284.96875 L 153.339844 234 "/>
</g>
<g clip-path="url(#clip-13-2e961308)">
<path fill="none" stroke-width="0.75" stroke-linecap="butt" stroke-linejoin="miter" stroke="rgb(58.823532%, 34.509805%, 69.803923%)" stroke-opacity="0.8" stroke-miterlimit="2" d="M 149.144531 234 L 108.5 307.035156 L 120.300781 350.457031 L 145.929688 402.164062 L 223.039062 390.398438 L 219.328125 312.289062 L 172.628906 259.761719 L 99.964844 276.28125 L 90.527344 345.265625 L 117.355469 420.992188 L 194.53125 393.1875 L 242.828125 330.835938 L 197.230469 260.277344 L 113.222656 253.636719 L 50.078125 322.976562 L 99.492188 401.199219 L 173.964844 434 "/>
</g>
<g clip-path="url(#clip-14-2e961308)">
<path fill="none" stroke-width="0.75" stroke-linecap="butt" stroke-linejoin="miter" stroke="rgb(58.823532%, 34.509805%, 69.803923%)" stroke-opacity="0.8" stroke-miterlimit="2" d="M 192.828125 434 L 235.355469 354.707031 L 218.964844 272.742188 L 139.554688 257.976562 L 79.597656 303.675781 L 93.964844 375.664062 L 156.433594 407.582031 L 241.40625 385.617188 "/>
</g>
<g clip-path="url(#clip-15-2e961308)">
<path fill="none" stroke-width="0.75" stroke-linecap="butt" stroke-linejoin="miter" stroke="rgb(79.215688%, 23.529412%, 20%)" stroke-opacity="0.8" stroke-miterlimit="2" d="M 201.367188 259.453125 L 119.066406 258.757812 L 54.3125 319.863281 L 103.996094 391.320312 L 177.261719 414.332031 L 246.964844 361.199219 L 204.296875 289.730469 L 142.261719 257.574219 L 89.242188 304.9375 L 80.054688 381.617188 L 139.761719 434 "/>
</g>
<g clip-path="url(#clip-16-2e961308)">
<path fill="none" stroke-width="0.75" stroke-linecap="butt" stroke-linejoin="miter" stroke="rgb(79.215688%, 23.529412%, 20%)" stroke-opacity="0.8" stroke-miterlimit="2" d="M 167.136719 434 L 224.710938 379.28125 L 228.980469 299.050781 L 163.40625 262.230469 L 102.683594 290.5 L 55.75 363.386719 L 136.074219 394.886719 L 197.480469 384.019531 L 244.398438 320.21875 L 188.53125 255.625 L 103.9375 258.289062 L 95.546875 334.511719 L 114.996094 395.148438 L 187 405.519531 L 235.765625 344.984375 L 215.9375 260.402344 L 136.222656 277.4375 L 105.691406 320.546875 L 84.167969 395.507812 L 168.871094 434 "/>
</g>
<g clip-path="url(#clip-17-2e961308)">
<path fill="none" stroke-width="0.75" stroke-linecap="butt" stroke-linejoin="miter" stroke="rgb(79.215688%, 23.529412%, 20%)" stroke-opacity="0.8" stroke-miterlimit="2" d="M 169.21875 434 L 220.792969 363.722656 L 220.277344 289.859375 L 152.253906 240.277344 L 86.75 292.382812 L 73.332031 371.984375 L 141.542969 426.667969 L 204.257812 376.675781 L 227.933594 310.902344 L 175.65625 253.917969 L 96.585938 270.414062 L 61.117188 348.84375 L 123.640625 402.414062 L 188.453125 386.375 L 233.542969 332.582031 L 195.847656 265.40625 L 119.601562 263.265625 L 59.011719 322.234375 L 106.570312 390.320312 L 181.300781 422.207031 L 207.046875 348.558594 L 217.90625 275.835938 L 140.234375 253.699219 L 75.1875 300.234375 L 91.410156 375.835938 L 144.871094 434 "/>
</g>
<g clip-path="url(#clip-18-2e961308)">
<path fill="none" stroke-width="0.75" stroke-linecap="butt" stroke-linejoin="miter" stroke="rgb(79.215688%, 23.529412%, 20%)" stroke-opacity="0.8" stroke-miterlimit="2" d="M 161.324219 434 L 194.457031 359.035156 L 242.375 290.921875 L 164.71875 240.550781 L 87.835938 279.773438 L 77.824219 358.21875 L 130.6875 419.398438 L 206.578125 392.253906 L 212.214844 324.03125 L 170.640625 293.753906 L 119.296875 283.722656 L 97.964844 335.476562 L 112.347656 401.996094 L 182.90625 393.992188 L 227.523438 342.554688 L 229.285156 241.394531 L 126.964844 252.328125 L 80.996094 314.972656 L 92.558594 390.023438 L 167.394531 413.710938 L 210.261719 357.878906 L 201.023438 301.363281 L 150.734375 244.75 L 81.488281 290.851562 L 86.480469 367.21875 L 146.644531 395.714844 L 228.148438 394.539062 L 205.535156 316.839844 L 181.113281 234 "/>
</g>
<g clip-path="url(#clip-19-2e961308)">
<path fill="none" stroke-width="0.75" stroke-linecap="butt" stroke-linejoin="miter" stroke="rgb(79.215688%, 23.529412%, 20%)" stroke-opacity="0.8" stroke-miterlimit="2" d="M 174.726562 234 L 102.253906 278.746094 L 68.121094 349.273438 L 126.367188 399.300781 L 197.707031 397.765625 L 224.9375 331.46875 L 194.714844 264.523438 L 114.101562 255.394531 L 62.140625 324.261719 L 118.875 377.082031 L 176.625 403.085938 L 247.496094 357.777344 L 205.34375 285.484375 L 143.433594 279.128906 L 84.527344 305.699219 L 109.078125 365.089844 L 156.351562 405.527344 L 197.441406 359.804688 "/>
</g>
<g clip-path="url(#clip-20-2e961308)">
<path fill="none" stroke-width="0.75" stroke-linecap="butt" stroke-linejoin="miter" stroke="rgb(79.215688%, 23.529412%, 20%)" stroke-opacity="0.8" stroke-miterlimit="2" d="M 191.285156 275.152344 L 121.683594 264.480469 L 55.800781 320.074219 L 87.886719 409.96875 L 174.816406 406.054688 L 240.675781 359.367188 L 224.035156 272.53125 L 144.476562 272.636719 L 77.199219 299.488281 L 89.78125 375.3125 L 153.894531 423.21875 L 223.101562 378.253906 L 237.574219 295.070312 L 163.042969 264.859375 L 74.355469 266.253906 L 86.386719 354.175781 L 141.800781 374.882812 L 201.746094 388.871094 L 255.578125 318.527344 L 195.792969 239.386719 L 101.859375 255.117188 L 74.449219 334.699219 L 105.699219 409.914062 L 191.082031 414.230469 L 226.472656 343.742188 L 215.621094 260.773438 L 126.828125 246.6875 L 71.207031 310.839844 L 78.488281 400.546875 L 165.042969 407.945312 L 218.832031 362.855469 L 210.097656 296.589844 L 152.660156 270.707031 L 105.613281 304.140625 L 86.695312 365.652344 L 143.648438 410.363281 L 219 389.070312 L 216.503906 314.449219 L 176.269531 251.695312 L 99.921875 274.144531 L 85.824219 344.871094 L 121.039062 408.378906 L 184.246094 380.070312 L 239.128906 332.484375 L 193.953125 268.476562 L 120.183594 264.480469 L 73.40625 324.027344 L 95.957031 403.058594 L 179.761719 417.328125 L 222.371094 352.726562 L 183.34375 307.046875 L 139.53125 249.445312 L 92.226562 307.582031 L 89.566406 377.078125 L 154.660156 386.429688 L 211.847656 369.664062 L 207.878906 307.640625 L 165.019531 238.039062 L 87.910156 279.839844 L 81.140625 357.15625 L 127.257812 432.222656 L 210.871094 396.964844 L 251.074219 317.4375 L 181.035156 269.355469 L 100.609375 256.25 L 86.210938 335.789062 L 135.085938 364.421875 L 181.488281 391.097656 L 209.636719 340.484375 L 212.175781 262.300781 L 143.28125 234 "/>
</g>
<g clip-path="url(#clip-21-2e961308)">
<path fill="none" stroke-width="0.75" stroke-linecap="butt" stroke-linejoin="miter" stroke="rgb(79.215688%, 23.529412%, 20%)" stroke-opacity="0.8" stroke-miterlimit="2" d="M 107.539062 234 L 40.636719 304.382812 L 91.621094 390.882812 L 169.609375 426.410156 L 245.796875 372.828125 L 205.277344 298.441406 L 150.878906 249.414062 L 88.328125 294.949219 L 81.121094 369.878906 L 145.355469 407.320312 L 235.566406 400.554688 L 250.957031 301.855469 L 169.375 272.390625 L 103.074219 279.632812 L 108.5 342.050781 L 130.136719 390.230469 L 212.21875 418.695312 L 206.183594 332.132812 L 205.101562 247.011719 L 122.582031 272.3125 L 77.84375 325.9375 L 102.828125 397.050781 L 169.839844 382.816406 L 223.503906 351.710938 L 196.902344 293.386719 L 142.199219 272.386719 L 58.300781 294.9375 L 101.421875 370.449219 L 157.398438 431.820312 L 212.492188 368.640625 "/>
</g>
<g clip-path="url(#clip-22-2e961308)">
<path fill="none" stroke-width="0.75" stroke-linecap="butt" stroke-linejoin="miter" stroke="rgb(21.960784%, 59.607846%, 14.901961%)" stroke-opacity="0.8" stroke-miterlimit="2" d="M 489.347656 267.269531 L 415.847656 267.027344 L 347.308594 319.859375 L 386.875 403.035156 L 471.535156 418.636719 L 501.488281 350.003906 L 496.4375 290.480469 L 435.238281 257.425781 L 381.964844 304.808594 L 370.640625 383.183594 L 446.847656 412.71875 L 489.800781 361.535156 L 522.765625 298.6875 L 459.859375 237.203125 L 379.671875 276.796875 L 349.707031 363.097656 L 431.445312 386.597656 L 489.304688 382.683594 L 486.023438 328.007812 L 460.605469 302.441406 L 399.496094 262.203125 L 365.964844 334.710938 L 409.023438 393.519531 L 473.417969 391.46875 L 531.726562 345.378906 L 486.914062 286.363281 L 422.800781 256.410156 L 396.0625 319.804688 L 405.25 370.59375 L 458.519531 411 L 501.699219 358.382812 L 514.691406 288.925781 L 446.035156 298.925781 L 381.570312 293.515625 L 406.941406 352.742188 L 439.027344 391.917969 L 508.042969 385.742188 L 515.140625 312.699219 L 461.390625 280.171875 L 400.4375 282.535156 L 373.589844 345.714844 L 407.351562 423.707031 L 492.542969 402.992188 L 495.519531 333.132812 L 485.558594 270.734375 L 403.03125 243.296875 L 367.441406 324.15625 L 378.929688 415.09375 L 470.996094 411.726562 L 529.160156 356.476562 L 516.898438 270.425781 L 434.953125 264.105469 L 387.742188 308.667969 L 361.875 391.019531 L 448.355469 417.886719 L 517.589844 377.453125 L 507.898438 304.238281 L 454.226562 269.632812 L 392.933594 289.765625 L 382.722656 354.410156 L 431.167969 391.394531 L 494.066406 386.207031 L 521.351562 321.292969 L 467.726562 284.164062 L 410.242188 280.703125 L 356.207031 336.398438 L 412.054688 390.914062 L 484.882812 412.300781 L 511.175781 341.472656 L 500.609375 267.878906 L 419.132812 249.777344 L 408.28125 323.972656 L 412.386719 365.359375 L 456.523438 391.515625 L 536.066406 371.679688 L 501.40625 296.292969 L 444.710938 276.273438 L 367.425781 286.621094 L 381.644531 366.148438 L 438.304688 407.789062 L 521.15625 394.546875 L 518.144531 310.371094 L 468.324219 249.3125 L 392.683594 275.972656 L 377.742188 346.296875 L 405.5 432.671875 L 485.46875 390.207031 L 511.132812 331.710938 L 492.957031 255.679688 L 413.738281 268.636719 L 357.933594 324.558594 L 385.253906 410.207031 L 473.800781 415.5625 L 503.617188 348.449219 L 507.5625 276.859375 L 434.417969 268.128906 L 376.421875 305.246094 L 388.65625 374.480469 L 450.019531 422.28125 L 494.675781 362.289062 "/>
</g>
<g clip-path="url(#clip-23-2e961308)">
<path fill="none" stroke-width="0.75" stroke-linecap="butt" stroke-linejoin="miter" stroke="rgb(79.215688%, 23.529412%, 20%)" stroke-opacity="0.8" stroke-miterlimit="2" d="M 464.363281 306.179688 L 424.199219 285.273438 L 345.28125 319.570312 L 392.125 396.957031 L 473.1875 424.214844 L 515.03125 353.941406 L 531.183594 260.203125 L 439.203125 284.394531 L 353.40625 291.890625 L 364.71875 387.023438 L 446.71875 383.492188 L 500.535156 368.359375 L 477.851562 319.484375 L 456.351562 262.625 L 375.714844 273.410156 L 358.382812 360.492188 L 421.417969 421.640625 L 484.410156 377.113281 L 544.566406 319.132812 L 480.675781 257.546875 L 394.8125 255.050781 L 351.917969 334.835938 L 407.035156 396.675781 L 491.992188 431.121094 L 536.648438 346.039062 L 481.640625 292.578125 L 428.882812 276.320312 L 353.628906 307.863281 L 374.945312 397.476562 L 459.8125 419.269531 L 531.6875 371.625 L 493.546875 302.902344 L 446 296.347656 L 386.230469 296.421875 L 368.628906 370.898438 L 437.347656 404.949219 L 512.867188 389.800781 L 493.246094 319.496094 L 465.488281 265.371094 L 402.53125 284.878906 L 380.28125 344.636719 L 417.40625 400.664062 L 498.875 412.476562 L 548.382812 332.195312 L 475.359375 287.253906 L 404.335938 246.019531 L 353.261719 322.390625 L 397.105469 393.28125 L 469.046875 405.539062 L 510.914062 351.515625 L 475.757812 307.578125 L 434.300781 260.164062 L 398.941406 313.492188 L 359.234375 392.800781 L 448.058594 404.507812 L 513.082031 374.699219 L 506.273438 305.027344 L 454.054688 271.058594 L 381.148438 280.035156 L 376.894531 356.277344 L 428.589844 401.042969 L 491.730469 383.640625 L 525.679688 320.558594 L 474.625 267.96875 L 409.542969 279.671875 L 364.660156 336.171875 L 391.132812 425.484375 L 470.117188 382.183594 L 537.683594 344.535156 L 488.816406 282.289062 L 423.347656 262.75 L 376.9375 315.746094 L 386.527344 389.132812 L 460.828125 416.203125 L 532.335938 370.109375 L 517.898438 284.96875 L 446.339844 234 "/>
</g>
<g clip-path="url(#clip-24-2e961308)">
<path fill="none" stroke-width="0.75" stroke-linecap="butt" stroke-linejoin="miter" stroke="rgb(79.215688%, 23.529412%, 20%)" stroke-opacity="0.8" stroke-miterlimit="2" d="M 442.144531 234 L 401.5 307.035156 L 413.300781 350.457031 L 438.929688 402.164062 L 516.039062 390.398438 L 512.328125 312.289062 L 465.628906 259.761719 L 392.964844 276.28125 L 383.527344 345.265625 L 410.355469 420.992188 L 487.53125 393.1875 L 535.828125 330.835938 L 490.230469 260.277344 L 406.222656 253.636719 L 343.078125 322.976562 L 392.492188 401.199219 L 466.964844 434 "/>
</g>
<g clip-path="url(#clip-25-2e961308)">
<path fill="none" stroke-width="0.75" stroke-linecap="butt" stroke-linejoin="miter" stroke="rgb(79.215688%, 23.529412%, 20%)" stroke-opacity="0.8" stroke-miterlimit="2" d="M 485.828125 434 L 528.355469 354.707031 L 511.964844 272.742188 L 432.554688 257.976562 L 372.597656 303.675781 L 386.964844 375.664062 L 449.433594 407.582031 L 534.40625 385.617188 "/>
</g>
<g clip-path="url(#clip-26-2e961308)">
<path fill="none" stroke-width="0.75" stroke-linecap="butt" stroke-linejoin="miter" stroke="rgb(58.823532%, 34.509805%, 69.803923%)" stroke-opacity="0.8" stroke-miterlimit="2" d="M 494.367188 259.453125 L 412.066406 258.757812 L 347.3125 319.863281 L 396.996094 391.320312 L 470.261719 414.332031 L 539.964844 361.199219 L 497.296875 289.730469 L 435.261719 257.574219 L 382.242188 304.9375 L 373.054688 381.617188 L 432.761719 434 "/>
</g>
<g clip-path="url(#clip-27-2e961308)">
<path fill="none" stroke-width="0.75" stroke-linecap="butt" stroke-linejoin="miter" stroke="rgb(58.823532%, 34.509805%, 69.803923%)" stroke-opacity="0.8" stroke-miterlimit="2" d="M 460.136719 434 L 517.710938 379.28125 L 521.980469 299.050781 L 456.40625 262.230469 L 395.683594 290.5 L 348.75 363.386719 L 429.074219 394.886719 L 490.480469 384.019531 L 537.398438 320.21875 L 481.53125 255.625 L 396.9375 258.289062 L 388.546875 334.511719 L 407.996094 395.148438 L 480 405.519531 L 528.765625 344.984375 L 508.9375 260.402344 L 429.222656 277.4375 L 398.691406 320.546875 L 377.167969 395.507812 L 461.871094 434 "/>
</g>
<g clip-path="url(#clip-28-2e961308)">
<path fill="none" stroke-width="0.75" stroke-linecap="butt" stroke-linejoin="miter" stroke="rgb(58.823532%, 34.509805%, 69.803923%)" stroke-opacity="0.8" stroke-miterlimit="2" d="M 462.21875 434 L 513.792969 363.722656 L 513.277344 289.859375 L 445.253906 240.277344 L 379.75 292.382812 L 366.332031 371.984375 L 434.542969 426.667969 L 497.257812 376.675781 L 520.933594 310.902344 L 468.65625 253.917969 L 389.585938 270.414062 L 354.117188 348.84375 L 416.640625 402.414062 L 481.453125 386.375 L 526.542969 332.582031 L 488.847656 265.40625 L 412.601562 263.265625 L 352.011719 322.234375 L 399.570312 390.320312 L 474.300781 422.207031 L 500.046875 348.558594 L 510.90625 275.835938 L 433.234375 253.699219 L 368.1875 300.234375 L 384.410156 375.835938 L 437.871094 434 "/>
</g>
<g clip-path="url(#clip-29-2e961308)">
<path fill="none" stroke-width="0.75" stroke-linecap="butt" stroke-linejoin="miter" stroke="rgb(58.823532%, 34.509805%, 69.803923%)" stroke-opacity="0.8" stroke-miterlimit="2" d="M 454.324219 434 L 487.457031 359.035156 L 535.375 290.921875 L 457.71875 240.550781 L 380.835938 279.773438 L 370.824219 358.21875 L 423.6875 419.398438 L 499.578125 392.253906 L 505.214844 324.03125 L 463.640625 293.753906 L 412.296875 283.722656 L 390.964844 335.476562 L 405.347656 401.996094 L 475.90625 393.992188 L 520.523438 342.554688 L 522.285156 241.394531 L 419.964844 252.328125 L 373.996094 314.972656 L 385.558594 390.023438 L 460.394531 413.710938 L 503.261719 357.878906 L 494.023438 301.363281 L 443.734375 244.75 L 374.488281 290.851562 L 379.480469 367.21875 L 439.644531 395.714844 L 521.148438 394.539062 L 498.535156 316.839844 L 474.113281 234 "/>
</g>
<g clip-path="url(#clip-30-2e961308)">
<path fill="none" stroke-width="0.75" stroke-linecap="butt" stroke-linejoin="miter" stroke="rgb(58.823532%, 34.509805%, 69.803923%)" stroke-opacity="0.8" stroke-miterlimit="2" d="M 467.726562 234 L 395.253906 278.746094 L 361.121094 349.273438 L 419.367188 399.300781 L 490.707031 397.765625 L 517.9375 331.46875 L 487.714844 264.523438 L 407.101562 255.394531 L 355.140625 324.261719 L 411.875 377.082031 L 469.625 403.085938 L 540.496094 357.777344 L 498.34375 285.484375 L 436.433594 279.128906 L 377.527344 305.699219 L 402.078125 365.089844 L 449.351562 405.527344 L 490.441406 359.804688 "/>
</g>
<g clip-path="url(#clip-31-2e961308)">
<path fill="none" stroke-width="0.75" stroke-linecap="butt" stroke-linejoin="miter" stroke="rgb(58.823532%, 34.509805%, 69.803923%)" stroke-opacity="0.8" stroke-miterlimit="2" d="M 484.285156 275.152344 L 414.683594 264.480469 L 348.800781 320.074219 L 380.886719 409.96875 L 467.816406 406.054688 L 533.675781 359.367188 L 517.035156 272.53125 L 437.476562 272.636719 L 370.199219 299.488281 L 382.78125 375.3125 L 446.894531 423.21875 L 516.101562 378.253906 L 530.574219 295.070312 L 456.042969 264.859375 L 367.355469 266.253906 L 379.386719 354.175781 L 434.800781 374.882812 L 494.746094 388.871094 L 548.578125 318.527344 L 488.792969 239.386719 L 394.859375 255.117188 L 367.449219 334.699219 L 398.699219 409.914062 L 484.082031 414.230469 L 519.472656 343.742188 L 508.621094 260.773438 L 419.828125 246.6875 L 364.207031 310.839844 L 371.488281 400.546875 L 458.042969 407.945312 L 511.832031 362.855469 L 503.097656 296.589844 L 445.660156 270.707031 L 398.613281 304.140625 L 379.695312 365.652344 L 436.648438 410.363281 L 512 389.070312 L 509.503906 314.449219 L 469.269531 251.695312 L 392.921875 274.144531 L 378.824219 344.871094 L 414.039062 408.378906 L 477.246094 380.070312 L 532.128906 332.484375 L 486.953125 268.476562 L 413.183594 264.480469 L 366.40625 324.027344 L 388.957031 403.058594 L 472.761719 417.328125 L 515.371094 352.726562 L 476.34375 307.046875 L 432.53125 249.445312 L 385.226562 307.582031 L 382.566406 377.078125 L 447.660156 386.429688 L 504.847656 369.664062 L 500.878906 307.640625 L 458.019531 238.039062 L 380.910156 279.839844 L 374.140625 357.15625 L 420.257812 432.222656 L 503.871094 396.964844 L 544.074219 317.4375 L 474.035156 269.355469 L 393.609375 256.25 L 379.210938 335.789062 L 428.085938 364.421875 L 474.488281 391.097656 L 502.636719 340.484375 L 505.175781 262.300781 L 436.28125 234 "/>
</g>
<g clip-path="url(#clip-32-2e961308)">
<path fill="none" stroke-width="0.75" stroke-linecap="butt" stroke-linejoin="miter" stroke="rgb(58.823532%, 34.509805%, 69.803923%)" stroke-opacity="0.8" stroke-miterlimit="2" d="M 400.539062 234 L 333.636719 304.382812 L 384.621094 390.882812 L 462.609375 426.410156 L 538.796875 372.828125 L 498.277344 298.441406 L 443.878906 249.414062 L 381.328125 294.949219 L 374.121094 369.878906 L 438.355469 407.320312 L 528.566406 400.554688 L 543.957031 301.855469 L 462.375 272.390625 L 396.074219 279.632812 L 401.5 342.050781 L 423.136719 390.230469 L 505.21875 418.695312 L 499.183594 332.132812 L 498.101562 247.011719 L 415.582031 272.3125 L 370.84375 325.9375 L 395.828125 397.050781 L 462.839844 382.816406 L 516.503906 351.710938 L 489.902344 293.386719 L 435.199219 272.386719 L 351.300781 294.9375 L 394.421875 370.449219 L 450.398438 431.820312 L 505.492188 368.640625 "/>
</g>
<g clip-path="url(#clip-33-2e961308)">
<path fill-rule="evenodd" fill="rgb(0%, 0%, 0%)" fill-opacity="1" d="M -919700.5 920116 L -919700.5 -919884 L 920299.5 -919884 L 920299.5 920116 Z M 391.5 116 L 391.269531 109.511719 L 390.585938 103.054688 L 389.445312 96.660156 L 387.855469 90.363281 L 385.828125 84.195312 L 383.367188 78.183594 L 380.492188 72.363281 L 377.214844 66.757812 L 373.546875 61.398438 L 369.511719 56.3125 L 365.125 51.523438 L 360.414062 47.054688 L 355.398438 42.929688 L 350.105469 39.167969 L 344.558594 35.789062 L 338.789062 32.8125 L 332.824219 30.246094 L 326.691406 28.109375 L 320.425781 26.410156 L 314.050781 25.160156 L 307.609375 24.359375 L 301.125 24.015625 L 294.632812 24.128906 L 288.164062 24.703125 L 281.75 25.726562 L 275.425781 27.207031 L 269.222656 29.125 L 263.171875 31.476562 L 257.300781 34.25 L 251.636719 37.429688 L 246.214844 41.003906 L 241.058594 44.949219 L 236.191406 49.246094 L 231.640625 53.878906 L 227.425781 58.820312 L 223.574219 64.046875 L 220.097656 69.53125 L 217.019531 75.25 L 214.347656 81.167969 L 212.105469 87.261719 L 210.292969 93.5 L 208.929688 99.847656 L 208.015625 106.277344 L 207.558594 112.753906 L 207.558594 119.246094 L 208.015625 125.722656 L 208.929688 132.152344 L 210.292969 138.5 L 212.105469 144.738281 L 214.347656 150.832031 L 217.019531 156.75 L 220.097656 162.46875 L 223.574219 167.953125 L 227.425781 173.179688 L 231.640625 178.121094 L 236.191406 182.753906 L 241.058594 187.050781 L 246.214844 190.996094 L 251.636719 194.570312 L 257.300781 197.75 L 263.171875 200.523438 L 269.222656 202.875 L 275.425781 204.792969 L 281.75 206.273438 L 288.164062 207.296875 L 294.632812 207.871094 L 301.125 207.984375 L 307.609375 207.640625 L 314.050781 206.84375 L 320.425781 205.589844 L 326.691406 203.890625 L 332.824219 201.753906 L 338.789062 199.1875 L 344.558594 196.210938 L 350.105469 192.832031 L 355.398438 189.070312 L 360.414062 184.945312 L 365.125 180.476562 L 369.511719 175.6875 L 373.546875 170.601562 L 377.214844 165.242188 L 380.492188 159.636719 L 383.367188 153.816406 L 385.828125 147.804688 L 387.855469 141.636719 L 389.445312 135.339844 L 390.585938 128.945312 L 391.269531 122.488281 Z M 391.5 116 "/>
</g>
<g clip-path="url(#clip-34-2e961308)">
<path fill-rule="evenodd" fill="rgb(0%, 0%, 0%)" fill-opacity="1" d="M -919846.5 920334 L -919846.5 -919666 L 920153.5 -919666 L 920153.5 920334 Z M 245.5 334 L 245.269531 327.511719 L 244.585938 321.054688 L 243.445312 314.660156 L 241.855469 308.363281 L 239.828125 302.195312 L 237.367188 296.183594 L 234.492188 290.363281 L 231.214844 284.757812 L 227.546875 279.398438 L 223.511719 274.3125 L 219.125 269.523438 L 214.414062 265.054688 L 209.398438 260.929688 L 204.105469 257.167969 L 198.558594 253.789062 L 192.789062 250.8125 L 186.824219 248.246094 L 180.691406 246.109375 L 174.425781 244.410156 L 168.050781 243.160156 L 161.609375 242.359375 L 155.125 242.015625 L 148.632812 242.128906 L 142.164062 242.703125 L 135.75 243.726562 L 129.425781 245.207031 L 123.222656 247.125 L 117.171875 249.476562 L 111.300781 252.25 L 105.636719 255.429688 L 100.214844 259.003906 L 95.058594 262.949219 L 90.191406 267.246094 L 85.640625 271.878906 L 81.425781 276.820312 L 77.574219 282.046875 L 74.097656 287.53125 L 71.019531 293.25 L 68.347656 299.167969 L 66.105469 305.261719 L 64.292969 311.5 L 62.929688 317.847656 L 62.015625 324.277344 L 61.558594 330.753906 L 61.558594 337.246094 L 62.015625 343.722656 L 62.929688 350.152344 L 64.292969 356.5 L 66.105469 362.738281 L 68.347656 368.832031 L 71.019531 374.75 L 74.097656 380.46875 L 77.574219 385.953125 L 81.425781 391.179688 L 85.640625 396.121094 L 90.191406 400.753906 L 95.058594 405.050781 L 100.214844 408.996094 L 105.636719 412.570312 L 111.300781 415.75 L 117.171875 418.523438 L 123.222656 420.875 L 129.425781 422.792969 L 135.75 424.273438 L 142.164062 425.296875 L 148.632812 425.871094 L 155.125 425.984375 L 161.609375 425.640625 L 168.050781 424.84375 L 174.425781 423.589844 L 180.691406 421.890625 L 186.824219 419.753906 L 192.789062 417.1875 L 198.558594 414.210938 L 204.105469 410.832031 L 209.398438 407.070312 L 214.414062 402.945312 L 219.125 398.476562 L 223.511719 393.6875 L 227.546875 388.601562 L 231.214844 383.242188 L 234.492188 377.636719 L 237.367188 371.816406 L 239.828125 365.804688 L 241.855469 359.636719 L 243.445312 353.339844 L 244.585938 346.945312 L 245.269531 340.488281 Z M 245.5 334 "/>
</g>
<g clip-path="url(#clip-35-2e961308)">
<path fill-rule="evenodd" fill="rgb(0%, 0%, 0%)" fill-opacity="1" d="M -919553.5 920334 L -919553.5 -919666 L 920446.5 -919666 L 920446.5 920334 Z M 538.5 334 L 538.269531 327.511719 L 537.585938 321.054688 L 536.445312 314.660156 L 534.855469 308.363281 L 532.828125 302.195312 L 530.367188 296.183594 L 527.492188 290.363281 L 524.214844 284.757812 L 520.546875 279.398438 L 516.511719 274.3125 L 512.125 269.523438 L 507.414062 265.054688 L 502.398438 260.929688 L 497.105469 257.167969 L 491.558594 253.789062 L 485.789062 250.8125 L 479.824219 248.246094 L 473.691406 246.109375 L 467.425781 244.410156 L 461.050781 243.160156 L 454.609375 242.359375 L 448.125 242.015625 L 441.632812 242.128906 L 435.164062 242.703125 L 428.75 243.726562 L 422.425781 245.207031 L 416.222656 247.125 L 410.171875 249.476562 L 404.300781 252.25 L 398.636719 255.429688 L 393.214844 259.003906 L 388.058594 262.949219 L 383.191406 267.246094 L 378.640625 271.878906 L 374.425781 276.820312 L 370.574219 282.046875 L 367.097656 287.53125 L 364.019531 293.25 L 361.347656 299.167969 L 359.105469 305.261719 L 357.292969 311.5 L 355.929688 317.847656 L 355.015625 324.277344 L 354.558594 330.753906 L 354.558594 337.246094 L 355.015625 343.722656 L 355.929688 350.152344 L 357.292969 356.5 L 359.105469 362.738281 L 361.347656 368.832031 L 364.019531 374.75 L 367.097656 380.46875 L 370.574219 385.953125 L 374.425781 391.179688 L 378.640625 396.121094 L 383.191406 400.753906 L 388.058594 405.050781 L 393.214844 408.996094 L 398.636719 412.570312 L 404.300781 415.75 L 410.171875 418.523438 L 416.222656 420.875 L 422.425781 422.792969 L 428.75 424.273438 L 435.164062 425.296875 L 441.632812 425.871094 L 448.125 425.984375 L 454.609375 425.640625 L 461.050781 424.84375 L 467.425781 423.589844 L 473.691406 421.890625 L 479.824219 419.753906 L 485.789062 417.1875 L 491.558594 414.210938 L 497.105469 410.832031 L 502.398438 407.070312 L 507.414062 402.945312 L 512.125 398.476562 L 516.511719 393.6875 L 520.546875 388.601562 L 524.214844 383.242188 L 527.492188 377.636719 L 530.367188 371.816406 L 532.828125 365.804688 L 534.855469 359.636719 L 536.445312 353.339844 L 537.585938 346.945312 L 538.269531 340.488281 Z M 538.5 334 "/>
</g>
</svg>
