<?xml version="1.0" encoding="UTF-8"?>
<svg xmlns="http://www.w3.org/2000/svg" xmlns:xlink="http://www.w3.org/1999/xlink" width="600" height="450" viewBox="0 0 600 450">
<defs>
<clipPath id="clip-0-f14906fb">
<path clip-rule="nonzero" d="M 189 16 L 396 16 L 396 207 L 189 207 Z M 189 16 "/>
</clipPath>
<clipPath id="clip-1-f14906fb">
<path clip-rule="nonzero" d="M 224 16 L 300 16 L 300 216 L 224 216 Z M 224 16 "/>
</clipPath>
<clipPath id="clip-2-f14906fb">
<path clip-rule="nonzero" d="M 198 26 L 407 26 L 407 216 L 198 216 Z M 198 26 "/>
</clipPath>
<clipPath id="clip-3-f14906fb">
<path clip-rule="nonzero" d="M 200 24 L 413 24 L 413 216 L 200 216 Z M 200 24 "/>
</clipPath>
<clipPath id="clip-4-f14906fb">
<path clip-rule="nonzero" d="M 200 17 L 395 17 L 395 216 L 200 216 Z M 200 17 "/>
</clipPath>
<clipPath id="clip-5-f14906fb">
<path clip-rule="nonzero" d="M 192 16 L 406 16 L 406 216 L 192 216 Z M 192 16 "/>
</clipPath>
<clipPath id="clip-6-f14906fb">
<path clip-rule="nonzero" d="M 194 25 L 416 25 L 416 216 L 194 216 Z M 194 25 "/>
</clipPath>
<clipPath id="clip-7-f14906fb">
<path clip-rule="nonzero" d="M 208 31 L 407 31 L 407 216 L 208 216 Z M 208 31 "/>
</clipPath>
<clipPath id="clip-8-f14906fb">
<path clip-rule="nonzero" d="M 209 16 L 392 16 L 392 216 L 209 216 Z M 209 16 "/>
</clipPath>
<clipPath id="clip-9-f14906fb">
<path clip-rule="nonzero" d="M 43 234 L 250 234 L 250 425 L 43 425 Z M 43 234 "/>
</clipPath>
<clipPath id="clip-10-f14906fb">
<path clip-rule="nonzero" d="M 78 234 L 154 234 L 154 434 L 78 434 Z M 78 234 "/>
</clipPath>
<clipPath id="clip-11-f14906fb">
<path clip-rule="nonzero" d="M 52 244 L 261 244 L 261 434 L 52 434 Z M 52 244 "/>
</clipPath>
<clipPath id="clip-12-f14906fb">
<path clip-rule="nonzero" d="M 54 242 L 267 242 L 267 434 L 54 434 Z M 54 242 "/>
</clipPath>
<clipPath id="clip-13-f14906fb">
<path clip-rule="nonzero" d="M 54 235 L 249 235 L 249 434 L 54 434 Z M 54 235 "/>
</clipPath>
<clipPath id="clip-14-f14906fb">
<path clip-rule="nonzero" d="M 46 234 L 260 234 L 260 434 L 46 434 Z M 46 234 "/>
</clipPath>
<clipPath id="clip-15-f14906fb">
<path clip-rule="nonzero" d="M 48 243 L 270 243 L 270 434 L 48 434 Z M 48 243 "/>
</clipPath>
<clipPath id="clip-16-f14906fb">
<path clip-rule="nonzero" d="M 62 249 L 261 249 L 261 434 L 62 434 Z M 62 249 "/>
</clipPath>
<clipPath id="clip-17-f14906fb">
<path clip-rule="nonzero" d="M 63 234 L 246 234 L 246 434 L 63 434 Z M 63 234 "/>
</clipPath>
<clipPath id="clip-18-f14906fb">
<path clip-rule="nonzero" d="M 336 234 L 543 234 L 543 425 L 336 425 Z M 336 234 "/>
</clipPath>
<clipPath id="clip-19-f14906fb">
<path clip-rule="nonzero" d="M 371 234 L 447 234 L 447 434 L 371 434 Z M 371 234 "/>
</clipPath>
<clipPath id="clip-20-f14906fb">
<path clip-rule="nonzero" d="M 345 244 L 554 244 L 554 434 L 345 434 Z M 345 244 "/>
</clipPath>
<clipPath id="clip-21-f14906fb">
<path clip-rule="nonzero" d="M 347 242 L 560 242 L 560 434 L 347 434 Z M 347 242 "/>
</clipPath>
<clipPath id="clip-22-f14906fb">
<path clip-rule="nonzero" d="M 347 235 L 542 235 L 542 434 L 347 434 Z M 347 235 "/>
</clipPath>
<clipPath id="clip-23-f14906fb">
<path clip-rule="nonzero" d="M 339 234 L 553 234 L 553 434 L 339 434 Z M 339 234 "/>
</clipPath>
<clipPath id="clip-24-f14906fb">
<path clip-rule="nonzero" d="M 341 243 L 563 243 L 563 434 L 341 434 Z M 341 243 "/>
</clipPath>
<clipPath id="clip-25-f14906fb">
<path clip-rule="nonzero" d="M 355 249 L 554 249 L 554 434 L 355 434 Z M 355 249 "/>
</clipPath>
<clipPath id="clip-26-f14906fb">
<path clip-rule="nonzero" d="M 356 234 L 539 234 L 539 434 L 356 434 Z M 356 234 "/>
</clipPath>
<clipPath id="clip-27-f14906fb">
<path clip-rule="nonzero" d="M 162 16 L 437 16 L 437 216 L 162 216 Z M 162 16 "/>
</clipPath>
<clipPath id="clip-28-f14906fb">
<path clip-rule="nonzero" d="M 16 234 L 291 234 L 291 434 L 16 434 Z M 16 234 "/>
</clipPath>
<clipPath id="clip-29-f14906fb">
<path clip-rule="nonzero" d="M 309 234 L 584 234 L 584 434 L 309 434 Z M 309 234 "/>
</clipPath>
</defs>
<rect x="-60" y="-45" width="720" height="540" fill="rgb(100%, 100%, 100%)" fill-opacity="1"/>
<path fill-rule="nonzero" fill="rgb(100%, 100%, 100%)" fill-opacity="1" d="M 162 16 L 437 16 L 437 216 L 162 216 Z M 162 16 "/>
<path fill-rule="nonzero" fill="rgb(100%, 100%, 100%)" fill-opacity="1" d="M 16 234 L 291 234 L 291 434 L 16 434 Z M 16 234 "/>
<path fill-rule="nonzero" fill="rgb(100%, 100%, 100%)" fill-opacity="1" d="M 309 234 L 584 234 L 584 434 L 309 434 Z M 309 234 "/>
<g clip-path="url(#clip-0-f14906fb)">
<path fill="none" stroke-width="0.75" stroke-linecap="butt" stroke-linejoin="miter" stroke="rgb(79.215688%, 23.529412%, 20%)" stroke-opacity="0.8" stroke-miterlimit="2" d="M 362.835938 16 L 272.082031 56.09375 L 201.613281 102.046875 L 238.71875 186.375 L 317.320312 176.238281 L 393.699219 143.414062 L 350.632812 71.441406 L 296.511719 95.6875 L 233.207031 86.015625 L 214.441406 171.148438 L 299.808594 185.886719 L 355.683594 151.726562 L 389.449219 74.351562 L 310.292969 37.820312 L 241.738281 66.554688 L 227.027344 137.789062 L 282.917969 173.9375 L 354.292969 178.320312 L 386.0625 102.878906 L 331.28125 44.898438 L 258.730469 53.726562 L 220.375 116.699219 L 255.824219 185.359375 L 338.621094 199.523438 L 358.953125 123.9375 L 335.960938 73.019531 L 280.851562 54.949219 L 191.980469 85.742188 L 225.585938 181.574219 L 313.222656 203.890625 L 378.164062 150.746094 L 362.792969 74.164062 L 298.722656 16 "/>
</g>
<g clip-path="url(#clip-1-f14906fb)">
<path fill="none" stroke-width="0.75" stroke-linecap="butt" stroke-linejoin="miter" stroke="rgb(79.215688%, 23.529412%, 20%)" stroke-opacity="0.8" stroke-miterlimit="2" d="M 297.511719 16 L 227.015625 70.804688 L 243.046875 142.75 L 277.109375 216 "/>
</g>
<g clip-path="url(#clip-2-f14906fb)">
<path fill="none" stroke-width="0.75" stroke-linecap="butt" stroke-linejoin="miter" stroke="rgb(79.215688%, 23.529412%, 20%)" stroke-opacity="0.8" stroke-miterlimit="2" d="M 309.308594 216 L 371.074219 176.175781 L 351.289062 99.929688 L 319.035156 45.390625 L 252.621094 63.628906 L 200.96875 131.828125 L 277.984375 165.300781 L 340.050781 176.761719 L 380.78125 114.5625 L 339.582031 51.078125 L 263.464844 40.804688 L 242.589844 108.914062 L 238.683594 188.984375 L 324.046875 193.886719 L 353.636719 130.71875 L 369.421875 52.855469 L 285.046875 28.503906 L 251.042969 95.109375 L 218.144531 170.816406 L 300.503906 161.304688 L 349.796875 146.746094 L 369.972656 81.839844 L 306.234375 59.882812 L 204.332031 37.414062 L 201.890625 147.238281 L 284.363281 172.660156 L 343.542969 164.335938 L 342.546875 108.691406 L 323.269531 60.195312 L 244.644531 35.359375 L 216.507812 118.203125 L 249.632812 198.394531 L 326.378906 170.832031 L 404.019531 128.078125 L 358.835938 43.492188 L 272.390625 32.5625 L 214.835938 93.78125 L 226.703125 182.921875 L 313.402344 195.765625 L 379.714844 149.746094 L 358.777344 75.292969 L 296.957031 33.921875 L 237.894531 79.085938 L 229.976562 150.460938 L 295.363281 153.257812 L 354.789062 160.839844 L 385.914062 87.496094 L 312.839844 64.226562 L 233.730469 45.089844 L 244.789062 125.785156 L 269.585938 187.992188 L 350.003906 188.84375 L 382.621094 113.054688 L 334.871094 56.371094 L 266.3125 49.78125 L 217.628906 107.273438 L 257.117188 168.738281 L 323.988281 189.152344 L 399.414062 141.277344 L 359.214844 60.121094 L 287.746094 51.9375 L 210.683594 79.558594 L 237.21875 159.585938 L 302.519531 191.769531 L 359.28125 151.105469 "/>
</g>
<g clip-path="url(#clip-3-f14906fb)">
<path fill="none" stroke-width="0.75" stroke-linecap="butt" stroke-linejoin="miter" stroke="rgb(58.823532%, 34.509805%, 69.803923%)" stroke-opacity="0.8" stroke-miterlimit="2" d="M 349.410156 38.273438 L 273.902344 60.066406 L 213.0625 103.679688 L 245.226562 178.839844 L 321.980469 191.996094 L 378.417969 138.964844 L 373.636719 51.394531 L 288.382812 40.398438 L 228.800781 84.019531 L 230.09375 161 L 299.871094 199.957031 L 374.535156 163.710938 L 362.140625 86.996094 L 309.351562 44.636719 L 227.558594 54.417969 L 214.285156 141.617188 L 288.035156 156.0625 L 353.957031 177.933594 L 410.1875 99.222656 L 331.335938 44.773438 L 247.453125 36.5 L 220.480469 116.699219 L 265.757812 169.589844 L 337.1875 196.460938 L 367.328125 125.054688 L 342.09375 65.792969 L 272.320312 27.019531 L 202.6875 88.753906 L 252.71875 157.5 L 310.898438 216 "/>
</g>
<g clip-path="url(#clip-4-f14906fb)">
<path fill="none" stroke-width="0.75" stroke-linecap="butt" stroke-linejoin="miter" stroke="rgb(58.823532%, 34.509805%, 69.803923%)" stroke-opacity="0.8" stroke-miterlimit="2" d="M 321.164062 216 L 385.953125 154.1875 L 382.289062 61.277344 L 298.621094 49.84375 L 234.679688 75.582031 L 257.621094 135.84375 L 292.441406 170.703125 L 362.242188 168.753906 L 392.441406 87.160156 L 320.902344 38.640625 L 243.34375 53.261719 L 220.402344 128.707031 L 265.480469 193.949219 L 348.089844 188.804688 L 378.238281 114.605469 L 354.582031 26.78125 L 266.097656 46.300781 L 250.550781 109.90625 L 240.085938 187.304688 L 329.558594 211.367188 L 377.726562 137.269531 L 354.277344 66.53125 L 283.695312 20.324219 L 220.109375 81.769531 L 216.355469 172.023438 L 301.691406 215.078125 L 390.042969 171.347656 L 387.148438 73.515625 L 310.535156 24.074219 L 230.332031 58.882812 L 202.351562 147.089844 L 282.8125 178.46875 L 347.765625 168.972656 L 378.207031 102.640625 L 324.808594 56.574219 L 249.792969 42.929688 L 233.886719 117.742188 L 240.9375 212.761719 L 340.378906 199.394531 L 384.515625 125.824219 L 351.191406 52.835938 L 268.183594 19.621094 L 223.425781 96.035156 L 234.136719 176.085938 L 314.34375 201.15625 L 361.328125 142.011719 L 356.695312 76.722656 L 297.140625 39.824219 L 234.375 76.980469 L 230.523438 150.191406 L 292.226562 181.496094 L 373.039062 175.636719 L 377.726562 90.199219 L 317.972656 44.320312 L 238.609375 50.347656 L 220.234375 130.179688 L 280.707031 161.226562 L 332.589844 163.726562 L 379.589844 113.164062 L 344.453125 40.21875 L 264.011719 45.191406 L 208.589844 106.308594 L 254.722656 171.714844 L 324.195312 189.769531 L 374.714844 135.027344 L 361.753906 57.746094 L 289.933594 63.84375 L 217 82.148438 L 227.425781 166.441406 L 302.351562 187.539062 L 385.9375 166.757812 "/>
</g>
<g clip-path="url(#clip-5-f14906fb)">
<path fill="none" stroke-width="0.75" stroke-linecap="butt" stroke-linejoin="miter" stroke="rgb(21.960784%, 59.607846%, 14.901961%)" stroke-opacity="0.8" stroke-miterlimit="2" d="M 339.8125 53.214844 L 271.433594 54.675781 L 216.671875 104.191406 L 258.90625 163 L 323.046875 195.59375 L 360.605469 133.78125 L 362.847656 60.796875 L 290.828125 57.039062 L 243.683594 90.753906 L 240.167969 154.46875 L 299.914062 209.214844 L 338.429688 140.753906 L 402.347656 68.378906 L 308.964844 47.4375 L 237.175781 62.652344 L 235.359375 135.28125 L 281.5 178.890625 L 364.589844 190.027344 L 384.804688 103.070312 L 333.414062 40.132812 L 278.945312 84.601562 L 198.765625 116.890625 L 260.304688 178.246094 L 327.007812 174.730469 L 377.378906 126.398438 L 363.109375 41.019531 L 281.089844 55.730469 L 218.351562 93.160156 L 240.550781 168.296875 L 311.046875 189.949219 L 389.492188 155.75 L 354.679688 79.527344 L 298.425781 35.101562 L 232.621094 74.300781 L 203.863281 161.3125 L 293.03125 166.132812 L 353.140625 161.101562 L 403.511719 83.722656 L 312.203125 70.089844 L 269.578125 82.570312 L 223.558594 128.199219 L 256.6875 214.101562 L 343.402344 181.78125 L 358.097656 114.960938 L 338.332031 53.101562 L 266.8125 47.792969 L 221.296875 106.261719 L 245.445312 180.871094 L 328.300781 207.382812 L 377.222656 137.132812 L 367.492188 54.597656 L 286.535156 37.519531 L 228.882812 85.550781 L 222.324219 168 L 301.386719 201.195312 L 360.648438 153.378906 L 366.550781 83.5 L 306.382812 58.648438 L 236.71875 64.15625 L 194.246094 149.683594 L 283.101562 177.378906 L 342.53125 163.226562 L 383.792969 101.691406 L 341.570312 17.230469 L 241.722656 31.066406 L 238.074219 117.632812 L 249.480469 198.652344 L 332.488281 183.296875 L 357.28125 122.675781 L 360.609375 41.328125 L 283.773438 67.59375 L 245.199219 101.75 L 242.808594 168.113281 L 306.367188 155.386719 L 381.367188 150.441406 L 353.578125 78.863281 L 297.609375 54.960938 L 252.867188 88.058594 L 249.753906 140.660156 L 292.882812 175.574219 L 370.203125 173.339844 L 363.636719 94.847656 L 322.816406 25.523438 L 226.246094 37.019531 L 220.152344 130.191406 L 268.824219 189.828125 L 358.648438 201.320312 L 403.296875 112.324219 L 328.222656 67.578125 L 270.109375 57.359375 L 228.382812 108.417969 L 225.492188 208.085938 L 331.191406 210.671875 L 388.128906 138.421875 L 361.277344 58.191406 L 287.96875 53.140625 L 194.253906 72.816406 L 223.65625 169.082031 L 303.132812 207.152344 L 367.023438 155.652344 "/>
</g>
<g clip-path="url(#clip-6-f14906fb)">
<path fill="none" stroke-width="0.75" stroke-linecap="butt" stroke-linejoin="miter" stroke="rgb(21.960784%, 59.607846%, 14.901961%)" stroke-opacity="0.8" stroke-miterlimit="2" d="M 334.636719 61.277344 L 275.320312 63.171875 L 212.472656 103.59375 L 237.257812 188.066406 L 321.289062 189.660156 L 371.566406 136.972656 L 364.972656 58.945312 L 286.570312 28.070312 L 231.902344 85.421875 L 223.242188 165.441406 L 299.714844 164.445312 L 370.34375 161.046875 L 381.421875 78.070312 L 308.652344 49.707031 L 240.953125 65.886719 L 206.96875 143.816406 L 276.953125 194.777344 L 365.878906 191.492188 L 385.234375 103.003906 L 325.320312 58.238281 L 266.152344 65.0625 L 235.601562 116.566406 L 259.804688 179.042969 L 330.707031 182.621094 L 413.726562 131.253906 L 344.246094 63.253906 L 284.039062 65.386719 L 214.316406 92.027344 L 231.78125 176.078125 L 312.980469 202.335938 L 384.980469 153.753906 L 371.1875 68.613281 L 298.40625 33.621094 L 227.480469 71.097656 L 255.25 136.964844 L 288.054688 204.695312 L 352.578125 160.628906 L 379.59375 91.144531 L 321.1875 37.613281 L 239.949219 49.472656 L 196.824219 132.496094 L 238.789062 216 "/>
</g>
<g clip-path="url(#clip-7-f14906fb)">
<path fill="none" stroke-width="0.75" stroke-linecap="butt" stroke-linejoin="miter" stroke="rgb(21.960784%, 59.607846%, 14.901961%)" stroke-opacity="0.8" stroke-miterlimit="2" d="M 366.851562 216 L 387.894531 114.433594 L 322.859375 78.164062 L 265.980469 46.058594 L 216.074219 105.613281 L 263.34375 159.390625 L 323.101562 190.882812 L 404.289062 144.492188 L 352.164062 68.4375 L 288.910156 51.898438 L 210.746094 77.734375 L 218.101562 170.847656 L 300.835938 176.421875 L 397.75 176.058594 L 366.734375 83.410156 L 309.414062 33.417969 L 236.175781 63.707031 L 239.371094 135.242188 L 277.957031 196.644531 L 353.011719 174.730469 L 351.839844 107.117188 L 332.285156 39.027344 L 259.957031 57.867188 L 220.070312 118.109375 L 260.78125 179.976562 L 323.484375 164.929688 L 375.953125 124.832031 L 337.910156 69.066406 L 279.09375 53.195312 L 231.542969 98.167969 L 249.382812 162.070312 L 301.117188 216 "/>
</g>
<g clip-path="url(#clip-8-f14906fb)">
<path fill="none" stroke-width="0.75" stroke-linecap="butt" stroke-linejoin="miter" stroke="rgb(21.960784%, 59.607846%, 14.901961%)" stroke-opacity="0.8" stroke-miterlimit="2" d="M 327.125 216 L 352.847656 138.445312 L 357.894531 75.898438 L 297.683594 57.378906 L 243 82.148438 L 218.453125 156.171875 L 288.621094 213.949219 L 348.632812 155.847656 L 381.285156 89.027344 L 319.410156 38.730469 L 257.75 70.984375 L 216.0625 130.925781 L 274.71875 175.640625 L 349.511719 188.140625 L 389.113281 112.824219 L 353.542969 24.890625 L 265.171875 47.507812 L 211.269531 106.597656 L 259.691406 165.53125 L 329.351562 205.175781 L 373.640625 134.757812 L 346.945312 71.605469 L 281.597656 18.417969 L 243.015625 92.824219 L 222.976562 169.554688 L 301.824219 174.300781 L 361.21875 152.242188 "/>
</g>
<g clip-path="url(#clip-9-f14906fb)">
<path fill="none" stroke-width="0.75" stroke-linecap="butt" stroke-linejoin="miter" stroke="rgb(21.960784%, 59.607846%, 14.901961%)" stroke-opacity="0.8" stroke-miterlimit="2" d="M 216.835938 234 L 126.082031 274.09375 L 55.613281 320.046875 L 92.71875 404.375 L 171.320312 394.238281 L 247.699219 361.414062 L 204.632812 289.441406 L 150.511719 313.6875 L 87.207031 304.015625 L 68.441406 389.148438 L 153.808594 403.886719 L 209.683594 369.726562 L 243.449219 292.351562 L 164.292969 255.820312 L 95.738281 284.554688 L 81.027344 355.789062 L 136.917969 391.9375 L 208.292969 396.320312 L 240.0625 320.878906 L 185.28125 262.898438 L 112.730469 271.726562 L 74.375 334.699219 L 109.824219 403.359375 L 192.621094 417.523438 L 212.953125 341.9375 L 189.960938 291.019531 L 134.851562 272.949219 L 45.980469 303.742188 L 79.585938 399.574219 L 167.222656 421.890625 L 232.164062 368.746094 L 216.792969 292.164062 L 152.722656 234 "/>
</g>
<g clip-path="url(#clip-10-f14906fb)">
<path fill="none" stroke-width="0.75" stroke-linecap="butt" stroke-linejoin="miter" stroke="rgb(21.960784%, 59.607846%, 14.901961%)" stroke-opacity="0.8" stroke-miterlimit="2" d="M 151.511719 234 L 81.015625 288.804688 L 97.046875 360.75 L 131.109375 434 "/>
</g>
<g clip-path="url(#clip-11-f14906fb)">
<path fill="none" stroke-width="0.75" stroke-linecap="butt" stroke-linejoin="miter" stroke="rgb(21.960784%, 59.607846%, 14.901961%)" stroke-opacity="0.8" stroke-miterlimit="2" d="M 163.308594 434 L 225.074219 394.175781 L 205.289062 317.929688 L 173.035156 263.390625 L 106.621094 281.628906 L 54.96875 349.828125 L 131.984375 383.300781 L 194.050781 394.761719 L 234.78125 332.5625 L 193.582031 269.078125 L 117.464844 258.804688 L 96.589844 326.914062 L 92.683594 406.984375 L 178.046875 411.886719 L 207.636719 348.71875 L 223.421875 270.855469 L 139.046875 246.503906 L 105.042969 313.109375 L 72.144531 388.816406 L 154.503906 379.304688 L 203.796875 364.746094 L 223.972656 299.839844 L 160.234375 277.882812 L 58.332031 255.414062 L 55.890625 365.238281 L 138.363281 390.660156 L 197.542969 382.335938 L 196.546875 326.691406 L 177.269531 278.195312 L 98.644531 253.359375 L 70.507812 336.203125 L 103.632812 416.394531 L 180.378906 388.832031 L 258.019531 346.078125 L 212.835938 261.492188 L 126.390625 250.5625 L 68.835938 311.78125 L 80.703125 400.921875 L 167.402344 413.765625 L 233.714844 367.746094 L 212.777344 293.292969 L 150.957031 251.921875 L 91.894531 297.085938 L 83.976562 368.460938 L 149.363281 371.257812 L 208.789062 378.839844 L 239.914062 305.496094 L 166.839844 282.226562 L 87.730469 263.089844 L 98.789062 343.785156 L 123.585938 405.992188 L 204.003906 406.84375 L 236.621094 331.054688 L 188.871094 274.371094 L 120.3125 267.78125 L 71.628906 325.273438 L 111.117188 386.738281 L 177.988281 407.152344 L 253.414062 359.277344 L 213.214844 278.121094 L 141.746094 269.9375 L 64.683594 297.558594 L 91.21875 377.585938 L 156.519531 409.769531 L 213.28125 369.105469 "/>
</g>
<g clip-path="url(#clip-12-f14906fb)">
<path fill="none" stroke-width="0.75" stroke-linecap="butt" stroke-linejoin="miter" stroke="rgb(58.823532%, 34.509805%, 69.803923%)" stroke-opacity="0.8" stroke-miterlimit="2" d="M 203.410156 256.273438 L 127.902344 278.066406 L 67.0625 321.679688 L 99.226562 396.839844 L 175.980469 409.996094 L 232.417969 356.964844 L 227.636719 269.394531 L 142.382812 258.398438 L 82.800781 302.019531 L 84.09375 379 L 153.871094 417.957031 L 228.535156 381.710938 L 216.140625 304.996094 L 163.351562 262.636719 L 81.558594 272.417969 L 68.285156 359.617188 L 142.035156 374.0625 L 207.957031 395.933594 L 264.1875 317.222656 L 185.335938 262.773438 L 101.453125 254.5 L 74.480469 334.699219 L 119.757812 387.589844 L 191.1875 414.460938 L 221.328125 343.054688 L 196.09375 283.792969 L 126.320312 245.019531 L 56.6875 306.753906 L 106.71875 375.5 L 164.898438 434 "/>
</g>
<g clip-path="url(#clip-13-f14906fb)">
<path fill="none" stroke-width="0.75" stroke-linecap="butt" stroke-linejoin="miter" stroke="rgb(58.823532%, 34.509805%, 69.803923%)" stroke-opacity="0.8" stroke-miterlimit="2" d="M 175.164062 434 L 239.953125 372.1875 L 236.289062 279.277344 L 152.621094 267.84375 L 88.679688 293.582031 L 111.621094 353.84375 L 146.441406 388.703125 L 216.242188 386.753906 L 246.441406 305.160156 L 174.902344 256.640625 L 97.34375 271.261719 L 74.402344 346.707031 L 119.480469 411.949219 L 202.089844 406.804688 L 232.238281 332.605469 L 208.582031 244.78125 L 120.097656 264.300781 L 104.550781 327.90625 L 94.085938 405.304688 L 183.558594 429.367188 L 231.726562 355.269531 L 208.277344 284.53125 L 137.695312 238.324219 L 74.109375 299.769531 L 70.355469 390.023438 L 155.691406 433.078125 L 244.042969 389.347656 L 241.148438 291.515625 L 164.535156 242.074219 L 84.332031 276.882812 L 56.351562 365.089844 L 136.8125 396.46875 L 201.765625 386.972656 L 232.207031 320.640625 L 178.808594 274.574219 L 103.792969 260.929688 L 87.886719 335.742188 L 94.9375 430.761719 L 194.378906 417.394531 L 238.515625 343.824219 L 205.191406 270.835938 L 122.183594 237.621094 L 77.425781 314.035156 L 88.136719 394.085938 L 168.34375 419.15625 L 215.328125 360.011719 L 210.695312 294.722656 L 151.140625 257.824219 L 88.375 294.980469 L 84.523438 368.191406 L 146.226562 399.496094 L 227.039062 393.636719 L 231.726562 308.199219 L 171.972656 262.320312 L 92.609375 268.347656 L 74.234375 348.179688 L 134.707031 379.226562 L 186.589844 381.726562 L 233.589844 331.164062 L 198.453125 258.21875 L 118.011719 263.191406 L 62.589844 324.308594 L 108.722656 389.714844 L 178.195312 407.769531 L 228.714844 353.027344 L 215.753906 275.746094 L 143.933594 281.84375 L 71 300.148438 L 81.425781 384.441406 L 156.351562 405.539062 L 239.9375 384.757812 "/>
</g>
<g clip-path="url(#clip-14-f14906fb)">
<path fill="none" stroke-width="0.75" stroke-linecap="butt" stroke-linejoin="miter" stroke="rgb(79.215688%, 23.529412%, 20%)" stroke-opacity="0.8" stroke-miterlimit="2" d="M 193.8125 271.214844 L 125.433594 272.675781 L 70.671875 322.191406 L 112.90625 381 L 177.046875 413.59375 L 214.605469 351.78125 L 216.847656 278.796875 L 144.828125 275.039062 L 97.683594 308.753906 L 94.167969 372.46875 L 153.914062 427.214844 L 192.429688 358.753906 L 256.347656 286.378906 L 162.964844 265.4375 L 91.175781 280.652344 L 89.359375 353.28125 L 135.5 396.890625 L 218.589844 408.027344 L 238.804688 321.070312 L 187.414062 258.132812 L 132.945312 302.601562 L 52.765625 334.890625 L 114.304688 396.246094 L 181.007812 392.730469 L 231.378906 344.398438 L 217.109375 259.019531 L 135.089844 273.730469 L 72.351562 311.160156 L 94.550781 386.296875 L 165.046875 407.949219 L 243.492188 373.75 L 208.679688 297.527344 L 152.425781 253.101562 L 86.621094 292.300781 L 57.863281 379.3125 L 147.03125 384.132812 L 207.140625 379.101562 L 257.511719 301.722656 L 166.203125 288.089844 L 123.578125 300.570312 L 77.558594 346.199219 L 110.6875 432.101562 L 197.402344 399.78125 L 212.097656 332.960938 L 192.332031 271.101562 L 120.8125 265.792969 L 75.296875 324.261719 L 99.445312 398.871094 L 182.300781 425.382812 L 231.222656 355.132812 L 221.492188 272.597656 L 140.535156 255.519531 L 82.882812 303.550781 L 76.324219 386 L 155.386719 419.195312 L 214.648438 371.378906 L 220.550781 301.5 L 160.382812 276.648438 L 90.71875 282.15625 L 48.246094 367.683594 L 137.101562 395.378906 L 196.53125 381.226562 L 237.792969 319.691406 L 195.570312 235.230469 L 95.722656 249.066406 L 92.074219 335.632812 L 103.480469 416.652344 L 186.488281 401.296875 L 211.28125 340.675781 L 214.609375 259.328125 L 137.773438 285.59375 L 99.199219 319.75 L 96.808594 386.113281 L 160.367188 373.386719 L 235.367188 368.441406 L 207.578125 296.863281 L 151.609375 272.960938 L 106.867188 306.058594 L 103.753906 358.660156 L 146.882812 393.574219 L 224.203125 391.339844 L 217.636719 312.847656 L 176.816406 243.523438 L 80.246094 255.019531 L 74.152344 348.191406 L 122.824219 407.828125 L 212.648438 419.320312 L 257.296875 330.324219 L 182.222656 285.578125 L 124.109375 275.359375 L 82.382812 326.417969 L 79.492188 426.085938 L 185.191406 428.671875 L 242.128906 356.421875 L 215.277344 276.191406 L 141.96875 271.140625 L 48.253906 290.816406 L 77.65625 387.082031 L 157.132812 425.152344 L 221.023438 373.652344 "/>
</g>
<g clip-path="url(#clip-15-f14906fb)">
<path fill="none" stroke-width="0.75" stroke-linecap="butt" stroke-linejoin="miter" stroke="rgb(79.215688%, 23.529412%, 20%)" stroke-opacity="0.8" stroke-miterlimit="2" d="M 188.636719 279.277344 L 129.320312 281.171875 L 66.472656 321.59375 L 91.257812 406.066406 L 175.289062 407.660156 L 225.566406 354.972656 L 218.972656 276.945312 L 140.570312 246.070312 L 85.902344 303.421875 L 77.242188 383.441406 L 153.714844 382.445312 L 224.34375 379.046875 L 235.421875 296.070312 L 162.652344 267.707031 L 94.953125 283.886719 L 60.96875 361.816406 L 130.953125 412.777344 L 219.878906 409.492188 L 239.234375 321.003906 L 179.320312 276.238281 L 120.152344 283.0625 L 89.601562 334.566406 L 113.804688 397.042969 L 184.707031 400.621094 L 267.726562 349.253906 L 198.246094 281.253906 L 138.039062 283.386719 L 68.316406 310.027344 L 85.78125 394.078125 L 166.980469 420.335938 L 238.980469 371.753906 L 225.1875 286.613281 L 152.40625 251.621094 L 81.480469 289.097656 L 109.25 354.964844 L 142.054688 422.695312 L 206.578125 378.628906 L 233.59375 309.144531 L 175.1875 255.613281 L 93.949219 267.472656 L 50.824219 350.496094 L 92.789062 434 "/>
</g>
<g clip-path="url(#clip-16-f14906fb)">
<path fill="none" stroke-width="0.75" stroke-linecap="butt" stroke-linejoin="miter" stroke="rgb(79.215688%, 23.529412%, 20%)" stroke-opacity="0.8" stroke-miterlimit="2" d="M 220.851562 434 L 241.894531 332.433594 L 176.859375 296.164062 L 119.980469 264.058594 L 70.074219 323.613281 L 117.34375 377.390625 L 177.101562 408.882812 L 258.289062 362.492188 L 206.164062 286.4375 L 142.910156 269.898438 L 64.746094 295.734375 L 72.101562 388.847656 L 154.835938 394.421875 L 251.75 394.058594 L 220.734375 301.410156 L 163.414062 251.417969 L 90.175781 281.707031 L 93.371094 353.242188 L 131.957031 414.644531 L 207.011719 392.730469 L 205.839844 325.117188 L 186.285156 257.027344 L 113.957031 275.867188 L 74.070312 336.109375 L 114.78125 397.976562 L 177.484375 382.929688 L 229.953125 342.832031 L 191.910156 287.066406 L 133.09375 271.195312 L 85.542969 316.167969 L 103.382812 380.070312 L 155.117188 434 "/>
</g>
<g clip-path="url(#clip-17-f14906fb)">
<path fill="none" stroke-width="0.75" stroke-linecap="butt" stroke-linejoin="miter" stroke="rgb(79.215688%, 23.529412%, 20%)" stroke-opacity="0.8" stroke-miterlimit="2" d="M 181.125 434 L 206.847656 356.445312 L 211.894531 293.898438 L 151.683594 275.378906 L 97 300.148438 L 72.453125 374.171875 L 142.621094 431.949219 L 202.632812 373.847656 L 235.285156 307.027344 L 173.410156 256.730469 L 111.75 288.984375 L 70.0625 348.925781 L 128.71875 393.640625 L 203.511719 406.140625 L 243.113281 330.824219 L 207.542969 242.890625 L 119.171875 265.507812 L 65.269531 324.597656 L 113.691406 383.53125 L 183.351562 423.175781 L 227.640625 352.757812 L 200.945312 289.605469 L 135.597656 236.417969 L 97.015625 310.824219 L 76.976562 387.554688 L 155.824219 392.300781 L 215.21875 370.242188 "/>
</g>
<g clip-path="url(#clip-18-f14906fb)">
<path fill="none" stroke-width="0.75" stroke-linecap="butt" stroke-linejoin="miter" stroke="rgb(21.960784%, 59.607846%, 14.901961%)" stroke-opacity="0.8" stroke-miterlimit="2" d="M 509.835938 234 L 419.082031 274.09375 L 348.613281 320.046875 L 385.71875 404.375 L 464.320312 394.238281 L 540.699219 361.414062 L 497.632812 289.441406 L 443.511719 313.6875 L 380.207031 304.015625 L 361.441406 389.148438 L 446.808594 403.886719 L 502.683594 369.726562 L 536.449219 292.351562 L 457.292969 255.820312 L 388.738281 284.554688 L 374.027344 355.789062 L 429.917969 391.9375 L 501.292969 396.320312 L 533.0625 320.878906 L 478.28125 262.898438 L 405.730469 271.726562 L 367.375 334.699219 L 402.824219 403.359375 L 485.621094 417.523438 L 505.953125 341.9375 L 482.960938 291.019531 L 427.851562 272.949219 L 338.980469 303.742188 L 372.585938 399.574219 L 460.222656 421.890625 L 525.164062 368.746094 L 509.792969 292.164062 L 445.722656 234 "/>
</g>
<g clip-path="url(#clip-19-f14906fb)">
<path fill="none" stroke-width="0.75" stroke-linecap="butt" stroke-linejoin="miter" stroke="rgb(21.960784%, 59.607846%, 14.901961%)" stroke-opacity="0.8" stroke-miterlimit="2" d="M 444.511719 234 L 374.015625 288.804688 L 390.046875 360.75 L 424.109375 434 "/>
</g>
<g clip-path="url(#clip-20-f14906fb)">
<path fill="none" stroke-width="0.75" stroke-linecap="butt" stroke-linejoin="miter" stroke="rgb(21.960784%, 59.607846%, 14.901961%)" stroke-opacity="0.8" stroke-miterlimit="2" d="M 456.308594 434 L 518.074219 394.175781 L 498.289062 317.929688 L 466.035156 263.390625 L 399.621094 281.628906 L 347.96875 349.828125 L 424.984375 383.300781 L 487.050781 394.761719 L 527.78125 332.5625 L 486.582031 269.078125 L 410.464844 258.804688 L 389.589844 326.914062 L 385.683594 406.984375 L 471.046875 411.886719 L 500.636719 348.71875 L 516.421875 270.855469 L 432.046875 246.503906 L 398.042969 313.109375 L 365.144531 388.816406 L 447.503906 379.304688 L 496.796875 364.746094 L 516.972656 299.839844 L 453.234375 277.882812 L 351.332031 255.414062 L 348.890625 365.238281 L 431.363281 390.660156 L 490.542969 382.335938 L 489.546875 326.691406 L 470.269531 278.195312 L 391.644531 253.359375 L 363.507812 336.203125 L 396.632812 416.394531 L 473.378906 388.832031 L 551.019531 346.078125 L 505.835938 261.492188 L 419.390625 250.5625 L 361.835938 311.78125 L 373.703125 400.921875 L 460.402344 413.765625 L 526.714844 367.746094 L 505.777344 293.292969 L 443.957031 251.921875 L 384.894531 297.085938 L 376.976562 368.460938 L 442.363281 371.257812 L 501.789062 378.839844 L 532.914062 305.496094 L 459.839844 282.226562 L 380.730469 263.089844 L 391.789062 343.785156 L 416.585938 405.992188 L 497.003906 406.84375 L 529.621094 331.054688 L 481.871094 274.371094 L 413.3125 267.78125 L 364.628906 325.273438 L 404.117188 386.738281 L 470.988281 407.152344 L 546.414062 359.277344 L 506.214844 278.121094 L 434.746094 269.9375 L 357.683594 297.558594 L 384.21875 377.585938 L 449.519531 409.769531 L 506.28125 369.105469 "/>
</g>
<g clip-path="url(#clip-21-f14906fb)">
<path fill="none" stroke-width="0.75" stroke-linecap="butt" stroke-linejoin="miter" stroke="rgb(79.215688%, 23.529412%, 20%)" stroke-opacity="0.8" stroke-miterlimit="2" d="M 496.410156 256.273438 L 420.902344 278.066406 L 360.0625 321.679688 L 392.226562 396.839844 L 468.980469 409.996094 L 525.417969 356.964844 L 520.636719 269.394531 L 435.382812 258.398438 L 375.800781 302.019531 L 377.09375 379 L 446.871094 417.957031 L 521.535156 381.710938 L 509.140625 304.996094 L 456.351562 262.636719 L 374.558594 272.417969 L 361.285156 359.617188 L 435.035156 374.0625 L 500.957031 395.933594 L 557.1875 317.222656 L 478.335938 262.773438 L 394.453125 254.5 L 367.480469 334.699219 L 412.757812 387.589844 L 484.1875 414.460938 L 514.328125 343.054688 L 489.09375 283.792969 L 419.320312 245.019531 L 349.6875 306.753906 L 399.71875 375.5 L 457.898438 434 "/>
</g>
<g clip-path="url(#clip-22-f14906fb)">
<path fill="none" stroke-width="0.75" stroke-linecap="butt" stroke-linejoin="miter" stroke="rgb(79.215688%, 23.529412%, 20%)" stroke-opacity="0.8" stroke-miterlimit="2" d="M 468.164062 434 L 532.953125 372.1875 L 529.289062 279.277344 L 445.621094 267.84375 L 381.679688 293.582031 L 404.621094 353.84375 L 439.441406 388.703125 L 509.242188 386.753906 L 539.441406 305.160156 L 467.902344 256.640625 L 390.34375 271.261719 L 367.402344 346.707031 L 412.480469 411.949219 L 495.089844 406.804688 L 525.238281 332.605469 L 501.582031 244.78125 L 413.097656 264.300781 L 397.550781 327.90625 L 387.085938 405.304688 L 476.558594 429.367188 L 524.726562 355.269531 L 501.277344 284.53125 L 430.695312 238.324219 L 367.109375 299.769531 L 363.355469 390.023438 L 448.691406 433.078125 L 537.042969 389.347656 L 534.148438 291.515625 L 457.535156 242.074219 L 377.332031 276.882812 L 349.351562 365.089844 L 429.8125 396.46875 L 494.765625 386.972656 L 525.207031 320.640625 L 471.808594 274.574219 L 396.792969 260.929688 L 380.886719 335.742188 L 387.9375 430.761719 L 487.378906 417.394531 L 531.515625 343.824219 L 498.191406 270.835938 L 415.183594 237.621094 L 370.425781 314.035156 L 381.136719 394.085938 L 461.34375 419.15625 L 508.328125 360.011719 L 503.695312 294.722656 L 444.140625 257.824219 L 381.375 294.980469 L 377.523438 368.191406 L 439.226562 399.496094 L 520.039062 393.636719 L 524.726562 308.199219 L 464.972656 262.320312 L 385.609375 268.347656 L 367.234375 348.179688 L 427.707031 379.226562 L 479.589844 381.726562 L 526.589844 331.164062 L 491.453125 258.21875 L 411.011719 263.191406 L 355.589844 324.308594 L 401.722656 389.714844 L 471.195312 407.769531 L 521.714844 353.027344 L 508.753906 275.746094 L 436.933594 281.84375 L 364 300.148438 L 374.425781 384.441406 L 449.351562 405.539062 L 532.9375 384.757812 "/>
</g>
<g clip-path="url(#clip-23-f14906fb)">
<path fill="none" stroke-width="0.75" stroke-linecap="butt" stroke-linejoin="miter" stroke="rgb(58.823532%, 34.509805%, 69.803923%)" stroke-opacity="0.8" stroke-miterlimit="2" d="M 486.8125 271.214844 L 418.433594 272.675781 L 363.671875 322.191406 L 405.90625 381 L 470.046875 413.59375 L 507.605469 351.78125 L 509.847656 278.796875 L 437.828125 275.039062 L 390.683594 308.753906 L 387.167969 372.46875 L 446.914062 427.214844 L 485.429688 358.753906 L 549.347656 286.378906 L 455.964844 265.4375 L 384.175781 280.652344 L 382.359375 353.28125 L 428.5 396.890625 L 511.589844 408.027344 L 531.804688 321.070312 L 480.414062 258.132812 L 425.945312 302.601562 L 345.765625 334.890625 L 407.304688 396.246094 L 474.007812 392.730469 L 524.378906 344.398438 L 510.109375 259.019531 L 428.089844 273.730469 L 365.351562 311.160156 L 387.550781 386.296875 L 458.046875 407.949219 L 536.492188 373.75 L 501.679688 297.527344 L 445.425781 253.101562 L 379.621094 292.300781 L 350.863281 379.3125 L 440.03125 384.132812 L 500.140625 379.101562 L 550.511719 301.722656 L 459.203125 288.089844 L 416.578125 300.570312 L 370.558594 346.199219 L 403.6875 432.101562 L 490.402344 399.78125 L 505.097656 332.960938 L 485.332031 271.101562 L 413.8125 265.792969 L 368.296875 324.261719 L 392.445312 398.871094 L 475.300781 425.382812 L 524.222656 355.132812 L 514.492188 272.597656 L 433.535156 255.519531 L 375.882812 303.550781 L 369.324219 386 L 448.386719 419.195312 L 507.648438 371.378906 L 513.550781 301.5 L 453.382812 276.648438 L 383.71875 282.15625 L 341.246094 367.683594 L 430.101562 395.378906 L 489.53125 381.226562 L 530.792969 319.691406 L 488.570312 235.230469 L 388.722656 249.066406 L 385.074219 335.632812 L 396.480469 416.652344 L 479.488281 401.296875 L 504.28125 340.675781 L 507.609375 259.328125 L 430.773438 285.59375 L 392.199219 319.75 L 389.808594 386.113281 L 453.367188 373.386719 L 528.367188 368.441406 L 500.578125 296.863281 L 444.609375 272.960938 L 399.867188 306.058594 L 396.753906 358.660156 L 439.882812 393.574219 L 517.203125 391.339844 L 510.636719 312.847656 L 469.816406 243.523438 L 373.246094 255.019531 L 367.152344 348.191406 L 415.824219 407.828125 L 505.648438 419.320312 L 550.296875 330.324219 L 475.222656 285.578125 L 417.109375 275.359375 L 375.382812 326.417969 L 372.492188 426.085938 L 478.191406 428.671875 L 535.128906 356.421875 L 508.277344 276.191406 L 434.96875 271.140625 L 341.253906 290.816406 L 370.65625 387.082031 L 450.132812 425.152344 L 514.023438 373.652344 "/>
</g>
<g clip-path="url(#clip-24-f14906fb)">
<path fill="none" stroke-width="0.75" stroke-linecap="butt" stroke-linejoin="miter" stroke="rgb(58.823532%, 34.509805%, 69.803923%)" stroke-opacity="0.8" stroke-miterlimit="2" d="M 481.636719 279.277344 L 422.320312 281.171875 L 359.472656 321.59375 L 384.257812 406.066406 L 468.289062 407.660156 L 518.566406 354.972656 L 511.972656 276.945312 L 433.570312 246.070312 L 378.902344 303.421875 L 370.242188 383.441406 L 446.714844 382.445312 L 517.34375 379.046875 L 528.421875 296.070312 L 455.652344 267.707031 L 387.953125 283.886719 L 353.96875 361.816406 L 423.953125 412.777344 L 512.878906 409.492188 L 532.234375 321.003906 L 472.320312 276.238281 L 413.152344 283.0625 L 382.601562 334.566406 L 406.804688 397.042969 L 477.707031 400.621094 L 560.726562 349.253906 L 491.246094 281.253906 L 431.039062 283.386719 L 361.316406 310.027344 L 378.78125 394.078125 L 459.980469 420.335938 L 531.980469 371.753906 L 518.1875 286.613281 L 445.40625 251.621094 L 374.480469 289.097656 L 402.25 354.964844 L 435.054688 422.695312 L 499.578125 378.628906 L 526.59375 309.144531 L 468.1875 255.613281 L 386.949219 267.472656 L 343.824219 350.496094 L 385.789062 434 "/>
</g>
<g clip-path="url(#clip-25-f14906fb)">
<path fill="none" stroke-width="0.75" stroke-linecap="butt" stroke-linejoin="miter" stroke="rgb(58.823532%, 34.509805%, 69.803923%)" stroke-opacity="0.8" stroke-miterlimit="2" d="M 513.851562 434 L 534.894531 332.433594 L 469.859375 296.164062 L 412.980469 264.058594 L 363.074219 323.613281 L 410.34375 377.390625 L 470.101562 408.882812 L 551.289062 362.492188 L 499.164062 286.4375 L 435.910156 269.898438 L 357.746094 295.734375 L 365.101562 388.847656 L 447.835938 394.421875 L 544.75 394.058594 L 513.734375 301.410156 L 456.414062 251.417969 L 383.175781 281.707031 L 386.371094 353.242188 L 424.957031 414.644531 L 500.011719 392.730469 L 498.839844 325.117188 L 479.285156 257.027344 L 406.957031 275.867188 L 367.070312 336.109375 L 407.78125 397.976562 L 470.484375 382.929688 L 522.953125 342.832031 L 484.910156 287.066406 L 426.09375 271.195312 L 378.542969 316.167969 L 396.382812 380.070312 L 448.117188 434 "/>
</g>
<g clip-path="url(#clip-26-f14906fb)">
<path fill="none" stroke-width="0.75" stroke-linecap="butt" stroke-linejoin="miter" stroke="rgb(58.823532%, 34.509805%, 69.803923%)" stroke-opacity="0.8" stroke-miterlimit="2" d="M 474.125 434 L 499.847656 356.445312 L 504.894531 293.898438 L 444.683594 275.378906 L 390 300.148438 L 365.453125 374.171875 L 435.621094 431.949219 L 495.632812 373.847656 L 528.285156 307.027344 L 466.410156 256.730469 L 404.75 288.984375 L 363.0625 348.925781 L 421.71875 393.640625 L 496.511719 406.140625 L 536.113281 330.824219 L 500.542969 242.890625 L 412.171875 265.507812 L 358.269531 324.597656 L 406.691406 383.53125 L 476.351562 423.175781 L 520.640625 352.757812 L 493.945312 289.605469 L 428.597656 236.417969 L 390.015625 310.824219 L 369.976562 387.554688 L 448.824219 392.300781 L 508.21875 370.242188 "/>
</g>
<g clip-path="url(#clip-27-f14906fb)">
<path fill-rule="evenodd" fill="rgb(100%, 100%, 100%)" fill-opacity="1" d="M -919700.5 920116 L -919700.5 -919884 L 920299.5 -919884 L 920299.5 920116 Z M 391.5 116 L 391.269531 109.511719 L 390.585938 103.054688 L 389.445312 96.660156 L 387.855469 90.363281 L 385.828125 84.195312 L 383.367188 78.183594 L 380.492188 72.363281 L 377.214844 66.757812 L 373.546875 61.398438 L 369.511719 56.3125 L 365.125 51.523438 L 360.414062 47.054688 L 355.398438 42.929688 L 350.105469 39.167969 L 344.558594 35.789062 L 338.789062 32.8125 L 332.824219 30.246094 L 326.691406 28.109375 L 320.425781 26.410156 L 314.050781 25.160156 L 307.609375 24.359375 L 301.125 24.015625 L 294.632812 24.128906 L 288.164062 24.703125 L 281.75 25.726562 L 275.425781 27.207031 L 269.222656 29.125 L 263.171875 31.476562 L 257.300781 34.25 L 251.636719 37.429688 L 246.214844 41.003906 L 241.058594 44.949219 L 236.191406 49.246094 L 231.640625 53.878906 L 227.425781 58.820312 L 223.574219 64.046875 L 220.097656 69.53125 L 217.019531 75.25 L 214.347656 81.167969 L 212.105469 87.261719 L 210.292969 93.5 L 208.929688 99.847656 L 208.015625 106.277344 L 207.558594 112.753906 L 207.558594 119.246094 L 208.015625 125.722656 L 208.929688 132.152344 L 210.292969 138.5 L 212.105469 144.738281 L 214.347656 150.832031 L 217.019531 156.75 L 220.097656 162.46875 L 223.574219 167.953125 L 227.425781 173.179688 L 231.640625 178.121094 L 236.191406 182.753906 L 241.058594 187.050781 L 246.214844 190.996094 L 251.636719 194.570312 L 257.300781 197.75 L 263.171875 200.523438 L 269.222656 202.875 L 275.425781 204.792969 L 281.75 206.273438 L 288.164062 207.296875 L 294.632812 207.871094 L 301.125 207.984375 L 307.609375 207.640625 L 314.050781 206.84375 L 320.425781 205.589844 L 326.691406 203.890625 L 332.824219 201.753906 L 338.789062 199.1875 L 344.558594 196.210938 L 350.105469 192.832031 L 355.398438 189.070312 L 360.414062 184.945312 L 365.125 180.476562 L 369.511719 175.6875 L 373.546875 170.601562 L 377.214844 165.242188 L 380.492188 159.636719 L 383.367188 153.816406 L 385.828125 147.804688 L 387.855469 141.636719 L 389.445312 135.339844 L 390.585938 128.945312 L 391.269531 122.488281 Z M 391.5 116 "/>
</g>
<g clip-path="url(#clip-28-f14906fb)">
<path fill-rule="evenodd" fill="rgb(100%, 100%, 100%)" fill-opacity="1" d="M -919846.5 920334 L -919846.5 -919666 L 920153.5 -919666 L 920153.5 920334 Z M 245.5 334 L 245.269531 327.511719 L 244.585938 321.054688 L 243.445312 314.660156 L 241.855469 308.363281 L 239.828125 302.195312 L 237.367188 296.183594 L 234.492188 290.363281 L 231.214844 284.757812 L 227.546875 279.398438 L 223.511719 274.3125 L 219.125 269.523438 L 214.414062 265.054688 L 209.398438 260.929688 L 204.105469 257.167969 L 198.558594 253.789062 L 192.789062 250.8125 L 186.824219 248.246094 L 180.691406 246.109375 L 174.425781 244.410156 L 168.050781 243.160156 L 161.609375 242.359375 L 155.125 242.015625 L 148.632812 242.128906 L 142.164062 242.703125 L 135.75 243.726562 L 129.425781 245.207031 L 123.222656 247.125 L 117.171875 249.476562 L 111.300781 252.25 L 105.636719 255.429688 L 100.214844 259.003906 L 95.058594 262.949219 L 90.191406 267.246094 L 85.640625 271.878906 L 81.425781 276.820312 L 77.574219 282.046875 L 74.097656 287.53125 L 71.019531 293.25 L 68.347656 299.167969 L 66.105469 305.261719 L 64.292969 311.5 L 62.929688 317.847656 L 62.015625 324.277344 L 61.558594 330.753906 L 61.558594 337.246094 L 62.015625 343.722656 L 62.929688 350.152344 L 64.292969 356.5 L 66.105469 362.738281 L 68.347656 368.832031 L 71.019531 374.75 L 74.097656 380.46875 L 77.574219 385.953125 L 81.425781 391.179688 L 85.640625 396.121094 L 90.191406 400.753906 L 95.058594 405.050781 L 100.214844 408.996094 L 105.636719 412.570312 L 111.300781 415.75 L 117.171875 418.523438 L 123.222656 420.875 L 129.425781 422.792969 L 135.75 424.273438 L 142.164062 425.296875 L 148.632812 425.871094 L 155.125 425.984375 L 161.609375 425.640625 L 168.050781 424.84375 L 174.425781 423.589844 L 180.691406 421.890625 L 186.824219 419.753906 L 192.789062 417.1875 L 198.558594 414.210938 L 204.105469 410.832031 L 209.398438 407.070312 L 214.414062 402.945312 L 219.125 398.476562 L 223.511719 393.6875 L 227.546875 388.601562 L 231.214844 383.242188 L 234.492188 377.636719 L 237.367188 371.816406 L 239.828125 365.804688 L 241.855469 359.636719 L 243.445312 353.339844 L 244.585938 346.945312 L 245.269531 340.488281 Z M 245.5 334 "/>
</g>
<g clip-path="url(#clip-29-f14906fb)">
<path fill-rule="evenodd" fill="rgb(100%, 100%, 100%)" fill-opacity="1" d="M -919553.5 920334 L -919553.5 -919666 L 920446.5 -919666 L 920446.5 920334 Z M 538.5 334 L 538.269531 327.511719 L 537.585938 321.054688 L 536.445312 314.660156 L 534.855469 308.363281 L 532.828125 302.195312 L 530.367188 296.183594 L 527.492188 290.363281 L 524.214844 284.757812 L 520.546875 279.398438 L 516.511719 274.3125 L 512.125 269.523438 L 507.414062 265.054688 L 502.398438 260.929688 L 497.105469 257.167969 L 491.558594 253.789062 L 485.789062 250.8125 L 479.824219 248.246094 L 473.691406 246.109375 L 467.425781 244.410156 L 461.050781 243.160156 L 454.609375 242.359375 L 448.125 242.015625 L 441.632812 242.128906 L 435.164062 242.703125 L 428.75 243.726562 L 422.425781 245.207031 L 416.222656 247.125 L 410.171875 249.476562 L 404.300781 252.25 L 398.636719 255.429688 L 393.214844 259.003906 L 388.058594 262.949219 L 383.191406 267.246094 L 378.640625 271.878906 L 374.425781 276.820312 L 370.574219 282.046875 L 367.097656 287.53125 L 364.019531 293.25 L 361.347656 299.167969 L 359.105469 305.261719 L 357.292969 311.5 L 355.929688 317.847656 L 355.015625 324.277344 L 354.558594 330.753906 L 354.558594 337.246094 L 355.015625 343.722656 L 355.929688 350.152344 L 357.292969 356.5 L 359.105469 362.738281 L 361.347656 368.832031 L 364.019531 374.75 L 367.097656 380.46875 L 370.574219 385.953125 L 374.425781 391.179688 L 378.640625 396.121094 L 383.191406 400.753906 L 388.058594 405.050781 L 393.214844 408.996094 L 398.636719 412.570312 L 404.300781 415.75 L 410.171875 418.523438 L 416.222656 420.875 L 422.425781 422.792969 L 428.75 424.273438 L 435.164062 425.296875 L 441.632812 425.871094 L 448.125 425.984375 L 454.609375 425.640625 L 461.050781 424.84375 L 467.425781 423.589844 L 473.691406 421.890625 L 479.824219 419.753906 L 485.789062 417.1875 L 491.558594 414.210938 L 497.105469 410.832031 L 502.398438 407.070312 L 507.414062 402.945312 L 512.125 398.476562 L 516.511719 393.6875 L 520.546875 388.601562 L 524.214844 383.242188 L 527.492188 377.636719 L 530.367188 371.816406 L 532.828125 365.804688 L 534.855469 359.636719 L 536.445312 353.339844 L 537.585938 346.945312 L 538.269531 340.488281 Z M 538.5 334 "/>
</g>
</svg>
